<svg xmlns="http://www.w3.org/2000/svg" viewBox="0 0 800 400"><defs><style>.a{fill:#abafb8;}.b{fill:#89909b;}.c{fill:#dddfe2;}.d{fill:#fff7ae;}.e{fill:#f4d75c;}.f{fill:#1d2432;opacity:0.1;}.g{fill:#dfbda5;}.h{fill:#c3987b;}.i{fill:#47ad82;}.j{fill:#4b5464;}.k{fill:#343c4b;}.l{fill:#8b6651;}.m{fill:#e8cab6;}.n{fill:#232a38;}.o{fill:#eeeff1;}.p{fill:#2d9368;}.q{fill:#216a4b;}.r{fill:#787f8d;}.s{fill:#cccfd4;}.t{fill:#709d52;}.u{fill:#86b264;}.v{fill:#648e43;}.w{fill:#267a56;}.x{fill:#33a474;}.y{fill:#51596a;}.z{fill:#68707f;}.aa{fill:#9a9fa9;}.ab{fill:#359496;}.ac{fill:#1e7678;}.ad{fill:#72cbcc;}.ae{fill:#185e60;}.af{fill:#67acc3;}.ag{fill:#388199;}.ah{fill:#96637c;}.ai{fill:#347990;}.aj{fill:#c09c84;}.ak{fill:#c9ad9b;}.al{fill:#a0cf7e;}.am{fill:#5bb68f;}.an{fill:#28835c;}.ao{fill:#576071;}.ap{fill:#4fa9aa;}.aq{fill:#5f6878;}.ar{fill:#a77e62;}.as{fill:#835940;}.at{fill:#245362;}.au{fill:#947125;}.av{fill:#d8a537;}.aw{fill:#3d4554;}.ax{fill:#a0cbd9;}.ay{fill:#e6b64e;}.az{fill:#309b6e;}.ba{fill:#f9fafa;}.bb{fill:#bbbfc6;}.bc{fill:#9b6533;}.bd{fill:#7c4f24;}.be{fill:#ab90b8;}.bf{fill:#fff;}.bg{fill:#8e699f;}.bh{fill:#654873;}.bi{fill:#af7546;}.bj{fill:#cc9262;}.bk{fill:#e4ae3a;}.bl{fill:#734d61;}.bm{fill:#c29431;}.bn{fill:#454d5d;}.bo{fill:#9f80ae;}.bp{fill:#b7a0c2;}.bq{fill:#88619a;}.br{fill:#545c6d;}.bs{fill:#94d5d5;}.bt{fill:#e5b244;}.bu{fill:#b3889d;}.bv{fill:#4b9db7;}</style></defs><polygon class="a" points="15.67 333.88 6.69 363.35 427.11 399 447.83 366.44 15.67 333.88"/><polygon class="b" points="427.11 399 793.89 362.06 782.49 333.88 580.51 342.57 431.67 375.82 427.11 399"/><polygon class="c" points="15.67 333.88 375.24 275.33 782.49 333.88 431.67 375.82 15.67 333.88"/><polygon class="d" points="30.8 351.39 36.42 346.16 41.65 351.97 35.45 356.43 30.8 351.39"/><polygon class="d" points="63.56 352.75 70.93 347.71 75.58 353.91 69.77 358.95 63.56 352.75"/><polygon class="d" points="96.91 355.85 105.44 350.04 110.29 356.63 103.31 362.64 96.91 355.85"/><polygon class="d" points="132.97 359.73 139.95 352.94 145.57 361.09 138.98 366.32 132.97 359.73"/><polygon class="d" points="166.12 362.64 172.72 355.46 177.56 364.19 170.97 369.42 166.12 362.64"/><polygon class="d" points="200.05 365.74 207.03 359.92 213.43 367.68 205.29 372.33 200.05 365.74"/><polygon class="d" points="237.66 370 244.45 363.8 250.46 371.56 243.87 376.98 237.66 370"/><polygon class="d" points="278.57 373.49 285.94 367.48 290.79 374.85 284.39 380.28 278.57 373.49"/><polygon class="d" points="317.54 376.79 323.36 370.78 329.18 378.15 322.39 383.38 317.54 376.79"/><polygon class="d" points="354.57 379.89 360.97 375.05 366.21 381.25 359.42 386.48 354.57 379.89"/><polygon class="d" points="391.61 382.99 398.2 378.34 403.24 384.93 396.45 390.17 391.61 382.99"/><polygon class="e" points="454.16 383.77 459.33 377.57 465.54 382.99 459.33 389.2 454.16 383.77"/><polygon class="e" points="492.42 380.41 498.11 373.69 504.05 379.89 498.11 385.84 492.42 380.41"/><polygon class="e" points="534.82 376.27 539.21 369.04 546.19 375.76 539.47 381.44 534.82 376.27"/><polygon class="e" points="576.44 372.14 581.35 364.64 588.33 372.14 581.87 378.08 576.44 372.14"/><polygon class="e" points="620.64 368 626.59 358.44 634.34 367.48 627.62 373.95 620.64 368"/><polygon class="e" points="666.65 362.83 671.57 354.3 678.8 362.83 672.08 367.48 666.65 362.83"/><polygon class="e" points="706.72 357.92 712.41 349.65 718.1 357.4 713.44 362.57 706.72 357.92"/><polygon class="e" points="749.89 353.27 756.61 346.03 763.34 353.01 756.61 358.44 749.89 353.27"/><polygon class="f" points="140.23 327.42 102.19 342.6 171.46 350.04 255.11 335.64 213.06 324.83 184.47 322.38 140.23 327.42"/><polygon class="f" points="288.03 344.41 345.05 336.55 449.29 346.16 395.61 356.43 317.74 358.44 288.03 344.41"/><polygon class="f" points="635.12 340.04 641.58 332.81 652.65 341.61 667.5 333.88 682.04 334.72 700.43 330.03 677.58 327.93 637.83 319.93 501.73 307.19 491.13 307.79 451.78 313.74 460.58 321.3 635.12 340.04"/><polygon class="f" points="303.84 311 335.19 317.55 422.39 307.99 427.8 303.12 395.09 296.33 337.24 299.48 301.13 306.09 303.84 311"/><polygon class="g" points="661.53 303.85 661.04 307.96 653.41 315.05 646.4 311.88 639.73 288.68 661.53 303.85"/><polygon class="g" points="598.13 277.33 594.15 298.45 598.86 307.19 608.53 304.28 624.73 274.46 598.13 277.33"/><polygon class="g" points="604.1 197.65 593.82 211.19 592.33 220.11 600.15 222.39 611.21 212.19 604.1 197.65"/><polygon class="h" points="668.27 156.98 677.77 205.92 669.17 208.5 661.1 204.11 653.55 196.87 658.14 175.25 668.27 156.98"/><polygon class="g" points="611.21 156.09 607 163.91 604.1 178.45 649.66 188.15 662.26 163.91 660.59 154.08 654.76 151.89 611.21 156.09"/><polygon class="i" points="606.99 149.05 596.6 183.94 631.76 201.46 653.55 196.87 668.27 156.98 660.59 154.08 647.27 181.36 606.99 175.25 611.21 156.09 606.99 149.05"/><polygon class="j" points="669.76 108.78 681.07 130.66 672.27 139.87 658.42 130.66 659.16 124.33 669.76 108.78"/><polygon class="k" points="663.76 117.57 672.27 139.87 659.55 138.11 658.42 126.01 663.76 117.57"/><polygon class="h" points="647.27 87.39 669.76 108.78 663.54 126.66 659.42 130.05 659.55 138.11 654.76 151.89 642.85 160.68 633.57 163.91 611.21 156.09 647.27 87.39"/><polygon class="l" points="632.79 159.71 648.11 147.63 642.85 160.68 633.57 167.52 611.21 156.09 620.77 153.27 632.79 159.71"/><polygon class="g" points="575.14 82.67 583.42 151.89 632.79 159.71 647.27 87.39 575.14 82.67"/><polygon class="h" points="585.29 110.74 605.26 127.66 622.71 113.31 614.76 110.21 606.42 110.89 603.19 113.63 599.93 110.21 593.34 107.49 585.29 110.74"/><polygon class="m" points="599.93 110.21 598.96 127.17 602.11 128.43 605.26 127.66 606.99 110.84 599.93 110.21"/><polygon class="l" points="598.96 127.17 602.06 130.66 605.26 127.66 598.96 127.17"/><polygon class="l" points="663.54 126.66 653.55 125.65 659.55 138.11 663.54 126.66"/><polygon class="l" points="658.14 122.03 660.03 112.45 666.47 114.04 658.14 122.03"/><circle class="n" cx="592.33" cy="118.25" r="2.84"/><circle class="n" cx="614.05" cy="120.42" r="2.84"/><polygon class="j" points="585.29 110.74 599.93 110.21 598.15 106.14 586.78 107.49 585.29 110.74"/><polygon class="j" points="606.99 110.84 609.39 107.1 620.45 109.69 622.71 113.31 606.99 110.84"/><polygon class="o" points="589.81 104.58 592.61 112.4 595.18 110.38 592.33 103.29 589.81 104.58"/><polygon class="p" points="590.82 136.77 597.7 144.04 606.42 145.1 614.27 138.51 600.99 139.87 590.82 136.77"/><polygon class="q" points="590.82 136.77 597.12 136.96 602.06 134.83 607.59 137.74 614.27 138.51 602.45 141.62 590.82 136.77"/><polygon class="j" points="575.14 82.67 580.05 66 588.62 59.39 596.92 57.86 613.98 39.83 622.71 44.29 627.36 45.64 634.15 38.28 646.48 43.51 651.21 49.72 661.1 49.72 662.31 68.13 675.35 91.3 672.27 100.93 668.27 101.87 669.76 108.78 658.38 108.27 652.95 122.81 649.82 103.29 654.12 100.77 648.91 97.6 647.27 87.39 614.85 95.27 611.21 91.3 605.26 97.6 590.66 90.37 587.62 83.84 582.26 86.21 575.14 82.67"/><polygon class="r" points="582.26 86.21 588.62 59.39 613.98 39.83 595.18 69.43 590.63 90.43 582.26 86.21"/><polygon class="r" points="622.71 44.29 604.1 75.31 605.26 97.6 614.85 95.27 616.89 76.05 634.15 38.28 622.71 44.29"/><polygon class="r" points="646.48 43.51 625.25 92.75 661.1 49.72 646.48 43.51"/><polygon class="k" points="661.1 49.72 647.27 87.39 659.55 82.67 675.35 91.3 661.1 49.72"/><polygon class="k" points="648.91 97.6 659.55 92.75 672.27 100.93 669.76 108.78 658.38 108.27 649.82 103.29 648.91 97.6"/><polygon class="p" points="596.6 183.94 653.55 196.87 655.65 214.88 644.62 219.17 607.39 209.55 596.6 183.94"/><polygon class="i" points="610.3 216.45 598.13 277.33 654.89 283.34 669.17 245.08 656.83 224.98 624.65 216.45 610.3 216.45"/><polygon class="p" points="669.17 245.08 598.13 277.33 661.53 303.85 669.17 245.08"/><polygon class="j" points="610.3 216.45 623.86 218.94 626.13 217.27 630.26 220.11 656.83 224.98 655.65 214.88 632.08 212.28 627.14 214.06 622.2 211.19 607.39 209.55 610.3 216.45"/><polygon class="s" points="622.2 211.19 623.86 218.94 630.26 220.11 632.08 212.28 622.2 211.19"/><polygon class="g" points="677.77 205.92 666.86 222.37 653.55 229.44 655.65 214.88 661.1 204.11 677.77 205.92"/><polygon class="t" points="666.86 222.37 655.65 214.88 650.85 223.82 656.83 227.37 664.32 226.11 666.86 222.37"/><polygon class="u" points="603.56 313.44 603.56 322.31 588.97 324.83 571.52 322.31 592.61 306.58 598.86 307.19 603.56 313.44"/><polygon class="v" points="594.15 298.45 608.53 304.28 603.56 313.44 592.61 306.58 594.15 298.45"/><rect class="w" x="571.52" y="322.31" width="32.03" height="7.17"/><polygon class="u" points="648.6 319.53 645.07 328.47 656.28 331.29 667.5 328.47 660.04 316.27 654.76 316.01 648.6 319.53"/><polygon class="v" points="661.04 307.96 646.4 311.88 648.6 319.53 660.04 316.27 661.04 307.96"/><rect class="w" x="645.02" y="328.47" width="22.47" height="7.17"/><polygon class="x" points="339.9 306.98 335.19 317.55 327.19 317.55 324.72 301.81 339.9 306.98"/><polygon class="x" points="430.12 296.52 431.16 307.99 422.39 307.99 416.42 295.62 430.12 296.52"/><polygon class="x" points="293.89 298.45 296.09 311 303.84 311 308.37 296.64 293.89 298.45"/><polygon class="y" points="303.22 207.73 342.75 211.19 352.05 269.21 339.9 306.98 293.89 298.45 303.22 207.73"/><polygon class="y" points="346.14 298.74 424.39 289.32 421 225.32 340.21 233.15 346.14 298.74"/><polygon class="r" points="417.71 228.43 349.21 295.62 351.28 297.42 419.52 230.05 417.71 228.43"/><polygon class="r" points="419.72 240.49 365.04 296.14 366.98 297.49 421.66 242.43 419.72 240.49"/><polygon class="r" points="422.24 252.32 380.36 297.11 382.3 298.27 422.24 255.81 422.24 252.32"/><polygon class="r" points="421.85 267.05 395.09 296.33 397.81 296.72 423.01 269.19 421.85 267.05"/><polygon class="r" points="407.7 224.59 344.49 285.67 343.33 283.73 406.6 221.3 407.7 224.59"/><polygon class="r" points="392.96 223.82 341.39 273.65 341.2 271.32 388.89 224.4 392.96 223.82"/><polygon class="r" points="374.54 225.37 337.12 259.3 337.12 256 372.6 223.82 374.54 225.37"/><polygon class="r" points="341.07 236.94 420.82 287 422.63 284.89 342.36 231.38 341.07 236.94"/><polygon class="r" points="359.81 226.92 423.6 271.32 424.76 269.38 363.1 225.76 359.81 226.92"/><polygon class="r" points="383.46 224.79 422.82 251.35 422.63 247.86 384.43 221.49 383.46 224.79"/><polygon class="r" points="343.13 246.37 409.44 290.13 408.28 292.06 343.13 249.41 343.13 246.37"/><polygon class="r" points="343.91 261.63 391.61 293.42 388.5 294.58 342.75 263.76 343.91 261.63"/><polygon class="r" points="345.46 277.91 373.77 296.14 372.02 297.49 344.49 280.63 345.46 277.91"/><path class="z" d="M424.39,206.42l-49.33-3-42,13.88L339.9,307l32-3.91,58.27-6.55Zm-75.18,89.2-5.43-60,73.93-7.17L420.82,287Z"/><polygon class="aa" points="424.39 206.42 381.61 194.03 303.22 207.73 333.1 217.34 424.39 206.42"/><polygon class="r" points="677.58 327.93 664.65 323.82 645.02 328.47 653.55 335.64 677.58 327.93"/><polygon class="y" points="644.03 284.5 644.03 307.77 652.65 341.61 682.04 334.72 677.58 327.93 655.47 330.26 656.06 277.14 644.03 284.5"/><polygon class="r" points="491.13 307.79 474.2 303.63 457.14 307.12 469.16 311.78 491.13 307.79"/><polygon class="y" points="460.58 321.3 493.97 314.23 491.13 307.79 468.25 309.32 475.36 252.71 459.3 255.63 453.65 277.52 460.58 321.3"/><polygon class="z" points="644.03 284.5 652.65 341.61 635.12 340.04 629.66 282.26 635.89 277.52 644.03 284.5"/><polygon class="z" points="446.8 253.68 443.31 318.45 460.58 321.3 459.3 255.63 456.75 249.86 446.8 253.68"/><polygon class="c" points="547.5 215.13 483.05 225.67 640.48 256.07 689.43 234.7 547.5 215.13"/><polygon class="a" points="673.32 232.48 624 248.6 620.6 247.81 670.39 232.08 673.32 232.48"/><polygon class="a" points="608.53 246.63 659.13 230.53 655.65 230.05 603.56 245.86 608.53 246.63"/><polygon class="a" points="643.11 228.32 593.63 244.44 592.33 243.4 640.41 227.94 643.11 228.32"/><polygon class="a" points="629.67 226.46 581.41 241.85 579.15 241.33 627.14 226.11 629.67 226.46"/><polygon class="a" points="616.76 224.68 566.23 240.3 561.96 239.65 612.85 224.14 616.76 224.68"/><polygon class="a" points="600.15 222.39 550.97 238.34 549.03 237.2 597.26 221.99 600.15 222.39"/><polygon class="a" points="586.85 220.56 537.69 235.6 536.53 233.98 583.88 220.15 586.85 220.56"/><polygon class="a" points="574.14 218.8 524.81 232.93 521.52 232.22 571.78 218.48 574.14 218.8"/><polygon class="a" points="561.96 217.12 509.19 230.17 504.7 229.44 559.43 216.78 561.96 217.12"/><polygon class="z" points="618.64 247.18 639.06 240.3 651.41 242.03 629.67 249.41 618.64 247.18"/><polygon class="z" points="602.84 245.08 624.73 237.8 635.96 239.59 611.21 247.96 602.84 245.08"/><polygon class="z" points="578.63 240.47 601.77 232.93 611.21 234.13 587.14 242.17 578.63 240.47"/><polygon class="z" points="562.99 237.39 587.33 230.17 598.02 232.08 573.37 239.72 562.99 237.39"/><polygon class="z" points="548.81 235.36 572.49 227.87 582.77 229.51 558.24 237.39 548.81 235.36"/><polygon class="z" points="507.16 227.94 534.4 221.13 545.54 222.95 517.43 230.05 507.16 227.94"/><polygon class="ab" points="447.83 226.34 446.8 253.68 459.3 255.63 480.27 253.17 609.44 274.46 629.66 282.26 644.03 284.5 646.96 260.63 629.67 255.1 465.47 225.71 447.83 226.34"/><polygon class="ac" points="715 238.23 711.89 256.07 681.27 264.39 678.29 276.21 644.03 284.5 641.58 263.05 683 244.44 715 238.23"/><polygon class="ad" points="689.43 234.7 689.43 234.7 640.48 249.9 498.88 224.98 547.5 215.13 547.5 215.13 528.87 212.56 447.83 226.34 641.58 263.05 715 238.23 689.43 234.7"/><polygon class="ae" points="649.75 268.22 650.63 275.88 652.47 275.39 651.98 267.25 649.75 268.22"/><polygon class="ae" points="654.5 266.86 655.09 274.62 657.12 273.94 656.73 265.99 654.5 266.86"/><polygon class="ae" points="659.35 265.6 659.64 273.26 661.87 272.58 661.58 264.63 659.35 265.6"/><polygon class="af" points="629.66 282.26 619.4 268.94 469.74 242.05 459.3 255.63 527.46 266.28 529.13 265.06 530.3 266.73 535.41 267.53 536.82 266.41 538.31 267.98 543.34 268.77 545.11 267.76 546.19 269.21 629.66 282.26"/><polygon class="ag" points="527.46 266.28 527.97 258.07 530.81 258.46 530.3 266.73 527.46 266.28"/><polygon class="ag" points="535.41 267.53 536.24 259.36 538.89 259.82 538.31 268.02 535.41 267.53"/><polygon class="ag" points="543.34 268.77 543.86 260.92 546.88 261.3 546.19 269.21 543.34 268.77"/><polygon class="e" points="492.29 227.25 509.19 230.17 503.93 231.38 487.64 228.28 492.29 227.25"/><polygon class="ah" points="514.65 231.51 530.42 234.74 525.51 236.03 510.52 233.06 514.65 231.51"/><polygon class="ai" points="537.69 235.6 552.52 238.36 548.78 239.65 534.17 237.07 537.69 235.6"/><polygon class="ab" points="584.97 245.6 588.07 244.44 594.27 245.47 590.27 246.63 584.97 245.6"/><polygon class="ab" points="595.7 247.54 598.54 246.25 604.48 247.15 600.35 248.44 595.7 247.54"/><polygon class="ab" points="607.2 249.86 610.3 248.22 615.99 249.09 611.98 250.64 607.2 249.86"/><polygon class="ab" points="618.83 251.67 622.06 250.25 628.4 251.16 623.87 252.58 618.83 251.67"/><polygon class="f" points="580.53 221.13 572.38 224.98 588.52 227.94 599.4 230.05 616.76 224.68 600.15 222.39 590.69 221.09 580.53 221.13"/><polygon class="f" points="635.02 230.95 640.16 234.75 648.49 232.22 657.12 237.8 673.32 232.48 661.41 230.84 642.1 228.67 635.02 230.95"/><polygon class="h" points="593.82 211.19 600.15 222.39 594.91 226.82 592.33 225.71 589.68 221.09 586.24 215.65 593.82 211.19"/><polygon class="g" points="593.82 211.19 576.66 209.82 570.26 219.92 588.52 227.94 593.82 211.19"/><polygon class="h" points="645.3 222.87 634.34 227.37 635.02 230.95 645.97 230.05 645.3 222.87"/><polygon class="g" points="664.32 226.11 645.3 222.87 640.16 234.75 657.12 237.8 664.32 226.11"/><polygon class="aj" points="148.21 301.63 145.02 312.68 132.89 318.69 127.72 315.2 126.59 309.38 135.88 293.49 148.21 301.63"/><polygon class="aj" points="143.07 319.41 153.87 334.24 137.4 335.58 126.59 334.24 129.11 322.38 133.98 316.95 143.07 319.41"/><polygon class="z" points="138.23 318.21 140.23 327.42 137.4 329.98 134.74 319.41 138.23 318.21"/><polygon class="j" points="129.11 322.38 143.07 319.41 145.02 312.68 127.72 315.2 129.11 322.38"/><polygon class="ak" points="126.59 334.24 140.23 327.42 153.87 334.24 139.58 335.85 126.59 334.24"/><rect class="j" x="126.59" y="334.24" width="27.27" height="5.13"/><polygon class="aj" points="180.49 315.2 180.49 327.42 216.36 327.42 195.96 311.43 184.47 311.43 180.49 315.2"/><polygon class="z" points="188.26 312 206.66 325.6 210.29 322.66 195.96 311.43 188.26 312"/><polygon class="j" points="180.49 315.2 195.96 311.43 193.29 302.02 178.17 308.58 180.49 315.2"/><polygon class="ak" points="198.43 327.42 218.4 319.41 216.36 327.42 207.73 329.45 198.43 327.42"/><rect class="j" x="180.49" y="327.42" width="35.87" height="5.13"/><polygon class="aj" points="208.41 181.68 223.64 172.53 222.69 140.32 214.61 153.7 208.41 181.68"/><polygon class="x" points="178.17 308.58 170.34 334.6 171.46 307.5 174.57 304.21 178.17 308.58"/><polygon class="al" points="231.87 28.45 223.34 22.64 220.43 31.51 231.87 28.45"/><polygon class="al" points="227.37 39.27 219.42 33.65 216.36 42.46 227.37 39.27"/><polygon class="am" points="226.76 9.52 232.8 2 253.13 4.39 242.83 17.92 226.76 9.52"/><polygon class="an" points="242.27 58.63 258.3 26.32 253.13 4.39 242.27 14.17 237.88 36.4 234.78 58.63 242.27 58.63"/><polygon class="am" points="217.74 50.38 232.58 22.18 237.88 18.82 244.08 26.32 237.88 55.4 225.34 57.6 217.74 50.38"/><polygon class="ao" points="215.13 171.86 242.27 58.63 237.88 55.4 224.44 85.73 208.41 174.07 215.13 171.86"/><polygon class="x" points="230.64 176.76 244.08 189.09 242.27 219.88 230.9 219.88 230.64 229.26 244.08 287.86 219.38 300.34 195.96 311.43 202.47 236.98 230.64 176.76"/><polygon class="an" points="234.78 211.85 242.27 219.88 230.64 229.26 222.89 221.23 222.89 214.74 234.78 211.85"/><polygon class="an" points="230.64 277.33 244.08 287.86 217.74 308.93 195.96 311.43 211 291.81 230.64 277.33"/><polygon class="aj" points="162.14 162.53 171.46 165.66 184.47 170.02 173.8 190.99 162.14 182.16 162.14 162.53"/><polygon class="ap" points="118.45 224.08 111.7 239.01 132.15 287.86 171.46 251.89 162.14 226.66 150.59 219.88 118.45 224.08"/><polygon class="ap" points="105.82 168.3 100.61 171.86 109.69 198.42 150.76 215.65 173.8 190.99 162.14 162.53 149.08 166.69 105.82 168.3"/><polygon class="aj" points="112.44 163.78 129.31 185.04 159.32 176.25 151.54 161.28 127.21 155 112.44 163.78"/><polygon class="j" points="155.48 152.59 171.96 155 179.62 135.18 155.48 152.59"/><polygon class="aq" points="171.96 155 166.53 139.36 179.62 135.18 183.4 157.19 171.96 155"/><polygon class="aj" points="191.93 87.39 194.26 137.78 155.48 152.59 148.31 160.27 134.74 156.22 125.04 135.84 122.52 94.6 170.99 85.73 191.93 87.39"/><polygon class="ar" points="142.49 110.08 155.48 152.59 148.02 156.03 149.08 166.69 133.57 162.53 113.99 139.36 122.52 94.6 142.49 110.08"/><polygon class="ar" points="179.62 117.54 189.02 89.4 165.56 94.6 145.98 108.46 163.04 118.61 179.62 117.54"/><polygon class="ak" points="167.99 122.39 174.68 121.42 179.62 117.54 174.29 93.89 164.3 97.09 167.99 122.39"/><polygon class="as" points="167.99 122.39 174.97 124.52 179.62 117.54 167.99 122.39"/><polygon class="as" points="155.48 152.59 137.64 147.69 149.08 166.69 155.48 152.59"/><circle class="n" cx="156.35" cy="113.44" r="2.65"/><circle class="n" cx="184.18" cy="103.16" r="2.65"/><polygon class="ai" points="164.3 133.83 171.6 136.05 178.19 133.83 183.4 127.62 164.3 133.83"/><polygon class="at" points="164.3 133.83 175.45 126.94 183.4 127.62 175.55 131.81 164.3 133.83"/><polygon class="au" points="166.53 105.81 176.38 101.14 174.29 93.89 166.53 98.25 166.53 105.81"/><polygon class="av" points="145.33 119.37 126.59 118.61 127.76 113.44 142.49 110.08 145.33 112.14 145.33 119.37"/><polygon class="e" points="167.99 97.28 167.99 122.39 148.64 130.2 142.49 110.08 146.56 104 151.99 123.01 163.04 118.61 161.77 97.28 167.99 97.28"/><polygon class="e" points="171.96 95.73 179.62 117.54 196.97 110.79 196 85.73 190.57 87.39 191.93 108.14 181.66 111.43 176.34 92.43 171.96 95.73"/><polygon class="j" points="135.96 103.16 126.59 137.78 125.43 151.31 112.83 147.11 87.43 125.89 109.73 83.71 135.96 103.16"/><polygon class="aw" points="126.59 137.78 87.43 125.89 112.44 163.78 117.48 158.55 121.89 163.22 133.57 162.53 126.59 137.78"/><polygon class="aq" points="129.31 96.12 112.98 133.65 109.34 140.32 98.42 129.23 122.52 90.54 129.31 96.12"/><polygon class="j" points="112.98 133.65 121.89 163.22 112.44 163.78 98.42 129.23 112.98 133.65"/><polygon class="ad" points="85.41 82.44 142.49 110.08 211.02 81.32 183.4 72.27 113.17 71.73 85.41 82.44"/><polygon class="ap" points="180.53 66.53 174.97 55.4 134.74 65.1 137.64 94.6 180.53 66.53"/><polygon class="ab" points="139.19 69.23 135.96 60.35 116.51 61.8 113.17 71.73 137.64 94.6 139.19 69.23"/><polygon class="ad" points="116.51 61.8 146.56 45.96 174.97 55.4 139.19 69.23 116.51 61.8"/><polygon class="e" points="183.4 72.27 180.53 66.53 138.36 82.93 134.78 86.62 137.64 94.6 183.4 72.27"/><polygon class="av" points="138.36 82.93 113.17 71.73 110.5 79.64 137.64 94.6 138.36 82.93"/><polygon class="ax" points="112.44 163.78 131.63 182.2 155.48 175.24 151.54 161.28 162.14 162.53 160.33 178.58 126.59 186.85 105.82 168.3 112.44 163.78"/><polygon class="ac" points="173.8 190.99 109.69 198.42 115.26 214.74 145.25 220.58 164.97 218 173.8 190.99"/><polygon class="ab" points="111.7 239.01 171.46 251.89 189.47 298.09 126.59 309.38 125.28 303.17 128.53 297.56 123.68 295.62 111.7 239.01"/><polygon class="ay" points="123.68 295.62 180.77 275.77 184.47 285.25 125.28 303.17 123.68 295.62"/><polygon class="j" points="118.45 224.08 162.14 226.66 164.97 218 115.26 214.74 118.45 224.08"/><polygon class="ar" points="100.61 171.86 102.19 215.98 124.43 213.78 100.61 171.86"/><polygon class="al" points="171.46 165.66 195.49 162.53 212.29 165.66 230.64 176.76 234.78 211.85 222.89 221.23 230.64 277.33 195.96 311.43 178.17 308.58 156.35 296.46 140.74 277.33 130.08 254.14 160.45 217.71 155.48 193.92 171.46 165.66"/><polygon class="r" points="184.47 213.48 201.43 217.03 237.88 55.4 217.74 50.38 184.47 213.48"/><polygon class="az" points="232.58 22.18 226.76 9.52 242.27 14.17 244.08 26.32 232.58 22.18"/><polygon class="al" points="248.35 33.56 259.98 34.57 255.13 42.46 248.35 33.56"/><polygon class="al" points="244.86 43.96 254.17 46.87 248.35 54.05 244.86 43.96"/><polygon class="u" points="140.74 277.33 155.24 274.2 176.38 290 171.46 307.5 153.28 304.59 140.74 277.33"/><polygon class="r" points="171.46 307.5 170.44 261.3 195.27 266.19 178.17 308.58 171.46 307.5"/><polygon class="ba" points="175.56 271.49 174.57 271.28 221.88 51.42 226.06 39.72 227.01 40.06 222.85 51.7 175.56 271.49"/><polygon class="ba" points="179.18 272.53 178.19 272.31 225.75 52.58 232.74 30.3 233.71 30.61 226.73 52.84 179.18 272.53"/><polygon class="ba" points="183.12 272.56 182.13 272.34 229.89 53.36 236.91 31.4 237.88 31.71 230.87 53.62 183.12 272.56"/><polygon class="ba" points="186.67 273.82 185.68 273.6 233.77 54.39 237.4 42.72 238.36 43.02 234.74 54.65 186.67 273.82"/><polygon class="e" points="224.79 39.31 228.09 37.57 228.86 40.96 226.15 42.48 224.79 39.31"/><polygon class="e" points="230.91 29.91 233.52 28.16 235.42 31.19 231.83 33.23 230.91 29.91"/><polygon class="e" points="235.04 32.52 237.88 30.46 239.43 33.65 235.72 35.12 235.04 32.52"/><polygon class="e" points="235.35 42.29 237.88 40.22 239.43 43.38 236.65 45.13 235.35 42.29"/><polygon class="an" points="178.94 214.25 171.7 209.34 164.59 218.65 167.44 241.01 159.94 244.63 156.97 240.1 152.57 243.85 158.65 248.89 172.09 243.08 169.25 220.72 171.57 215.42 174.68 218.65 178.94 214.25"/><polygon class="an" points="205.7 224.47 204.53 220.2 211.9 216.71 218.36 225.89 207.38 246.83 211.13 254.19 216.68 250.83 219.78 254.97 210.09 258.59 202.72 247.47 212.29 226.4 210.35 222.91 205.7 224.47"/><polygon class="ar" points="222.69 140.32 233.71 123 225.02 112.43 220.02 123 219.38 137.44 222.69 140.32"/><polygon class="aj" points="225.02 112.43 209.13 115.43 210.12 129.59 219.38 137.44 225.02 112.43"/><polygon class="f" points="160.45 217.71 214.68 158.27 217.65 145.09 205.95 153.44 159.32 195.36 156.35 200.43 160.45 217.71"/><polygon class="aj" points="102.19 215.98 126.59 206.87 135.41 209.09 134.74 216.02 116.1 229.26 102.19 215.98"/><polygon class="ar" points="135.96 203.38 148.21 188.96 153.87 197.45 150.78 207.69 140.11 211.85 135.41 209.09 135.96 203.38"/><polygon class="e" points="135.96 203.38 140.11 211.85 134.74 216.02 126.59 206.87 135.96 203.38"/><polygon class="bb" points="223.74 141.25 222.69 140.32 220.7 141.73 222.56 143.88 223.74 141.25"/><polygon class="x" points="136.63 220.58 223.74 141.25 226.2 143.62 173.8 193.76 166.44 198.33 161.01 206.01 140.74 225.4 136.63 220.58"/><polygon class="e" points="155.48 197.41 221.04 138.89 222.69 140.32 156.35 200.43 155.48 197.41"/><polygon class="aj" points="148.21 188.96 173.8 193.76 161.01 206.01 150.78 207.69 148.21 188.96"/><polygon class="h" points="369.94 144.44 415.13 177.22 399.4 188.08 389.9 185.19 369.94 172.31 369.94 144.44"/><polygon class="h" points="317.74 162.75 302.2 195.36 302.2 205.68 310.48 210.03 326.2 197.37 326.2 178.28 317.74 162.75"/><polygon class="ad" points="331.89 344.61 342.96 346.35 337.1 352.26 325.98 352.26 327.62 345.87 331.89 344.61"/><polygon class="ab" points="312.7 330.84 325.98 352.26 331.89 344.61 326.55 329.92 322.78 326.96 312.7 330.84"/><polygon class="ad" points="325.56 320.95 312.7 330.84 326.55 329.92 329.76 323.86 325.56 320.95"/><polygon class="j" points="341.54 309.95 334.33 329.3 326.55 329.92 325.56 320.95 332.38 309.95 341.54 309.95"/><polygon class="aq" points="384.82 320.95 384.82 337.24 389.54 340.15 397.03 337.24 412.35 340.15 422.37 337.24 405.53 321.95 394.24 314.73 389.9 312.42 384.82 320.95"/><polygon class="g" points="386.95 278.69 389.54 288.43 384.82 303.12 371.85 303.07 361.95 289.42 386.95 278.69"/><polygon class="bc" points="303.22 156.63 296.8 170.57 317.74 162.75 311.2 155.63 303.22 156.63"/><polygon class="bd" points="311.2 145.94 317.74 162.75 303.22 156.63 311.2 145.94"/><polygon class="bc" points="313.28 124.55 303.37 134.94 303.22 156.63 320.52 142.4 318.71 128.63 313.28 124.55"/><polygon class="be" points="332.15 221.69 317.74 245.34 332.15 298.46 356.75 299.48 386.95 278.69 371.54 224.27 351.14 214.88 332.15 221.69"/><polygon class="g" points="326.2 151.89 337.32 203.85 376.35 192.48 382.23 181.36 367.66 145.94 326.2 151.89"/><polygon class="be" points="326.2 151.89 317.74 162.75 326.2 197.37 335.95 212.12 372.22 203.72 389.9 185.19 369.94 144.44 363.5 147.75 373.44 178.26 338.12 186.36 326.2 151.89"/><polygon class="g" points="387.21 54.3 397.12 72.27 406.08 127.85 372.22 135.6 361.36 150.15 330.92 149.76 311.21 116.12 323.88 72.27 359.29 45.13 387.21 54.3"/><polygon class="h" points="367.66 153.27 350.89 142.4 332.15 87.78 323.88 72.27 304.23 115.18 312.4 128.84 319.87 134.34 326.2 151.89 365.75 160.68 367.66 153.27"/><polygon class="h" points="388.89 78.41 368.14 103.81 348.18 86.75 353.41 81.71 360.78 81.51 365.43 84.03 369.5 85.58 371.83 82.67 375.13 77.63 382.88 75.31 388.89 78.41"/><polygon class="m" points="365.43 84.03 368.14 103.81 373.48 104.49 377.64 102.06 371.83 82.67 365.43 84.03"/><polygon class="l" points="368.14 103.81 373.67 106.91 377.64 102.06 368.14 103.81"/><polygon class="l" points="312.4 128.84 320.16 124.55 322.49 129.88 327.33 129.88 326.2 151.89 312.4 128.84"/><polygon class="l" points="308.82 117.38 314.34 114.47 317.74 122.41 308.82 117.38"/><polygon class="e" points="320.16 124.55 327.33 129.88 320.52 142.4 303.37 134.94 309.56 124.08 312.4 128.84 310.37 134.12 317.74 137.75 320.16 124.55"/><polygon class="l" points="372.22 135.6 336.15 143.75 367.66 153.27 372.22 135.6"/><circle class="n" cx="357.87" cy="92.43" r="3.04"/><circle class="n" cx="381.65" cy="87.39" r="3.04"/><polygon class="l" points="366.68 115.54 370.73 121.64 380.55 119.77 382.23 111.89 374.57 112.53 366.68 115.54"/><polygon class="bf" points="366.68 115.54 368.34 118.05 381.65 115.54 382.23 111.89 366.68 115.54"/><polygon class="bg" points="364.52 115.81 370.99 123.65 382.23 121.19 384.82 111.5 381.65 111.5 379.26 119.19 372.22 120.48 367.18 114.97 364.52 115.81"/><polygon class="bh" points="364.52 115.81 371.54 109.75 374.74 110.72 377.32 108.78 384.82 111.5 375.19 114.47 364.52 115.81"/><polygon class="bc" points="348.18 86.75 349.08 82.09 358.64 78.22 360.78 81.51 348.18 86.75"/><polygon class="bc" points="375.13 77.63 376.48 73.69 386.56 74.73 388.89 78.41 375.13 77.63"/><polygon class="bc" points="358.64 49.52 397.12 72.27 395.4 61.66 352.05 36.34 331.11 55.02 314.46 59.5 311.21 81.71 320.9 90.43 332.15 87.78 358.64 49.52"/><polygon class="bd" points="332.15 87.78 314.46 59.5 310.18 77.44 298.93 88.69 304.23 115.18 312.4 106.91 315.48 108.07 325.56 118.05 325.56 97.64 332.15 87.78"/><polygon class="bi" points="357.87 41.51 323.46 73.69 314.46 72.79 314.46 59.5 352.05 36.34 357.87 41.51"/><polygon class="bc" points="323.46 73.69 313.28 93.58 298.93 88.69 314.46 59.5 323.46 73.69"/><polygon class="bc" points="313.28 93.58 325.56 97.64 315.48 108.07 304.23 115.18 313.28 93.58"/><polygon class="bj" points="395.4 61.66 358.64 49.52 352.05 36.34 394.19 54.17 395.4 61.66"/><polygon class="bg" points="326.2 197.37 389.9 185.19 377.64 211.28 365.75 221.04 331.15 217.6 326.2 197.37"/><polygon class="bk" points="330.91 216.63 359.51 213.75 362.91 215.48 368.22 212.56 377.64 211.28 371.54 224.27 363.43 223.74 360.84 221.69 358.64 223.43 332.15 221.69 330.91 216.63"/><polygon class="d" points="359.51 213.75 358.64 223.43 363.43 223.74 368.22 212.56 359.51 213.75"/><polygon class="bg" points="317.74 245.34 356.75 299.48 324.18 307.63 322.81 294.39 327.99 283.15 320.79 274.86 319.72 264.51 322 256 317.74 245.34"/><polygon class="ah" points="371.54 224.27 317.74 245.34 321.81 259.69 328.17 259.82 374.35 234.2 371.54 224.27"/><polygon class="bl" points="317.74 245.34 328.17 259.82 319.72 264.51 317.74 245.34"/><polygon class="ah" points="379.72 253.17 335.19 269.56 328.17 278.88 343.96 281.73 381.46 259.29 379.72 253.17"/><polygon class="bl" points="335.19 269.56 343.96 281.73 322.81 294.39 320.79 274.86 335.19 269.56"/><polygon class="ah" points="386.95 278.69 384.37 269.56 350.59 290.93 346.04 299.04 356.75 299.48 363.43 291.87 371.51 289.32 377.64 282.56 386.95 278.69"/><polygon class="bl" points="350.59 290.93 356.75 299.48 347.66 302.86 341.54 309.95 333.18 311 325.56 320.95 324.18 307.63 350.59 290.93"/><polygon class="bk" points="386.95 278.69 375.24 275.33 371.51 289.32 359.25 285.45 356.75 299.48 386.95 278.69"/><polygon class="bm" points="356.75 299.48 341.54 296.64 341.54 309.95 330.54 303.6 325.56 320.95 356.75 299.48"/><polygon class="ah" points="366.68 149.56 371.85 148.34 375.91 156.63 356.75 178.28 347.82 174.73 323.36 161.36 322.68 156.41 326.2 151.89 352.05 156.62 366.68 149.56"/><polygon class="bl" points="371.85 148.34 354.83 166.82 352.05 156.62 369.94 144.44 371.85 148.34"/><polygon class="bl" points="354.83 166.82 347.82 174.73 317.74 162.75 322.68 156.41 354.83 166.82"/><polygon class="bn" points="384.01 293.01 371.85 303.07 384.82 320.95 396.17 313.46 384.01 293.01"/><polygon class="bo" points="384.01 293.01 392.54 315.85 396.17 315.85 396.17 313.46 389.54 288.43 384.01 293.01"/><polygon class="bp" points="392.54 315.85 399.94 326.38 405.53 321.95 396.17 313.46 392.54 315.85"/><polygon class="aw" points="422.37 347.9 405.53 347.9 397.03 337.24 393.54 347.9 384.82 347.9 384.82 337.24 422.37 337.24 422.37 347.9"/><polygon class="ab" points="337.1 352.26 346.74 352.26 355.62 343.92 345.05 336.55 337.1 352.26"/><polygon class="g" points="302.2 195.36 287.17 206.42 287.17 214.88 296.11 216.81 310.48 210.03 302.2 195.36"/><polygon class="h" points="287.17 221.04 280.19 233.58 269.59 233.58 263.39 224.27 280.19 211.55 286.13 213.73 287.17 221.04"/><polygon class="g" points="263.39 224.27 255.89 235.9 264.42 242.05 280.19 233.58 263.39 224.27"/><polygon class="g" points="280.19 211.55 267 213.93 255.11 222.56 256.67 225.82 263.39 224.27 276.31 221.04 287.17 214.88 280.19 211.55"/><polygon class="ah" points="280.19 211.55 287.17 221.04 296.11 216.81 287.17 206.42 280.19 211.55"/><polygon class="g" points="399.4 188.08 413.96 158.04 422.03 158.04 425.31 167.52 420.3 189.89 399.4 188.08"/><polygon class="h" points="416.94 151.89 418.56 147.32 430.12 131.4 434.9 128.31 447.83 138.97 443.44 152.9 427.8 156.41 420.04 156.41 416.94 151.89"/><polygon class="y" points="449.29 153.85 416.85 132.11 409.31 134.31 418.56 147.32 447.18 160.68 449.29 156.98 449.29 153.85"/><polygon class="r" points="450.93 153.27 424.39 135.15 409.31 134.31 446.8 154.73 449.29 156.09 450.93 153.27"/><polygon class="aa" points="450.93 153.27 446.8 154.73 447.18 160.68 451.78 157.44 450.93 153.27"/><polygon class="bo" points="406.08 134.31 415.77 129.27 424.39 135.15 417.69 138.88 413.29 138.88 406.08 134.31"/><polygon class="bq" points="417.69 138.88 409.31 134.31 405.53 138.22 408.02 142.4 418.56 147.32 417.69 138.88"/><polygon class="r" points="415.77 129.27 411.29 124.08 408.02 124.08 408.36 120.69 404.14 115.81 398.13 121.64 392.53 120.09 386.95 132.11 396.64 140.82 405.53 138.88 409.31 134.31 415.77 129.27"/><polygon class="br" points="409.31 134.31 398.58 130.13 386.95 132.11 395.61 144.44 398.34 141.55 400.48 143.64 408.02 142.4 409.31 134.31"/><polygon class="b" points="404.14 115.81 398.58 130.13 392.53 120.09 404.14 115.81"/><polygon class="bk" points="395.61 144.44 398.58 130.13 401.36 128.93 401.84 131.4 400.48 143.64 395.61 144.44"/><polygon class="e" points="401.84 131.4 411.29 124.08 408.36 120.69 398.58 130.13 401.84 131.4"/><polygon class="g" points="416.94 151.89 417.69 138.88 430.12 131.4 437.1 139.74 434.95 142.36 429.3 140.46 422.03 154.01 420.88 156.09 416.94 151.89"/><polygon class="ah" points="413.96 158.04 425.31 167.52 427.8 156.41 416.94 151.89 413.96 158.04"/><polygon class="bs" points="384.36 221.71 387.51 218.34 391.19 221.07 388.15 225.27 384.36 221.71"/><polygon class="bs" points="396.35 220.15 399.81 216.36 403.49 219.51 400.14 223.71 396.35 220.15"/><polygon class="bs" points="408.76 218.49 411.49 214.61 416.21 218.26 412.14 222.68 408.76 218.49"/><polygon class="bt" points="462.18 50.88 452.1 41.38 442.21 65.42 436.2 57.28 424.37 61.16 432.9 73.17 445.89 69.3 453.84 50.1 459.07 56.7 462.18 50.88"/><polygon class="u" points="484.28 48.94 477.88 65.61 472.65 58.63 463.73 64.26 470.9 72.01 480.98 70.27 489.71 50.49 484.28 48.94"/><polygon class="ap" points="409.63 9.78 416.42 24.9 409.44 23.93 405.95 30.91 417 33.43 421.46 24.9 417 12.69 426.12 8.42 431.74 19.28 425.73 19.28 423.6 24.9 433.87 28 436.39 16.95 426.5 2.41 409.63 9.78"/><polygon class="bt" points="481.69 81.45 504.96 77.76 508.84 100.25 502.25 107.04 493.52 100.64 497.98 95.99 503.8 97.54 500.11 83.58 488.09 84.74 490.03 101.42 484.02 109.17 475.68 103.74 479.17 98.12 485.76 99.28 481.69 81.45"/><polygon class="bu" points="540.7 35.17 546.51 49.33 539.34 48.16 534.69 53.98 545.54 58.63 552.14 49.33 546.51 32.07 540.7 35.17"/><polygon class="bv" points="461.79 101.09 467.8 116.6 460.24 116.22 457.72 123.97 467.22 126.1 472.45 116.8 466.64 99.35 461.79 101.09"/><polygon class="i" points="526.54 123.2 519.18 136.19 515.11 130.37 507.74 131.15 511.42 141.03 521.12 140.84 530.62 126.1 526.54 123.2"/></svg>