<svg xmlns="http://www.w3.org/2000/svg" viewBox="0 0 800 400"><defs><style>.a{fill:#dddfe2;}.b,.j{opacity:0.1;}.c,.j{fill:#1d2432;}.d{fill:#787f8d;}.e{fill:#68707f;}.f{fill:#9a9fa9;}.g{fill:#4fa9aa;}.h{fill:#359496;}.i{fill:#72cbcc;}.k{fill:#267a56;}.l{fill:#2d9368;}.m{fill:#c0db8e;}.n{fill:#86b264;}.o{fill:#a0cf7e;}.p{fill:#709d52;}.q{fill:#33a474;}.r{fill:#5bb68f;}.s{fill:#f4d75c;}.t{fill:#e5b244;}.u{fill:#cc9c34;}.v{fill:#fcf7eb;}.w{fill:#3da87b;}.x{fill:#2b8b62;}.y{fill:#47ad82;}.z{fill:#309b6e;}.aa{fill:#d9e256;}.ab{fill:#9471a4;}.ac{fill:#7a578a;}.ad{fill:#b3889d;}.ae{fill:#734d61;}.af{fill:#96637c;}.ag{fill:#3d4554;}.ah{fill:#29303e;}.ai{fill:#2e3544;}.aj{fill:#815c92;}.ak{fill:#d1a1b8;}.al{fill:#4b5464;}.am{fill:#654873;}.an{fill:#6c4d7b;}.ao{fill:#735283;}.ap{fill:#543042;}.aq{fill:#94d5d5;}.ar{fill:#f9fafa;}.as{fill:#232a38;}.at{fill:#454d5d;}.au{fill:#e9be61;}.av{fill:#ab90b8;}.aw{fill:#8e699f;}.ax{fill:#cc9262;}.ay{fill:#af7546;}.az{fill:#343c4b;}.ba{fill:#f9fbfc;}.bb{fill:#e4ae3a;}.bc{fill:#9b6533;}.bd{fill:#7c4f24;}.be{fill:#5f5044;}.bf{fill:#74665b;}.bg{fill:#46382d;}.bh{fill:#b3d5e1;}.bi{fill:#83624d;}.bj{fill:#66483a;}.bk{fill:#fff;}.bl{fill:#abafb8;}.bm{fill:#c09c84;}.bn{fill:#a77e62;}.bo{fill:#d8bca9;}.bp{fill:#f5f9fb;}.bq{fill:#1e7678;}.br{fill:#e6b64e;}.bs{fill:#8e7e73;}.bt{fill:#c3b0cc;}.bu{fill:#fff7ae;}.bv{fill:#8b6651;}.bw{fill:#404857;}.bx{fill:#dfbda5;}.by{fill:#c3987b;}.bz{fill:#b68b2e;}.ca{fill:#886822;}.cb{fill:#5f6878;}.cc{fill:#545c6d;}.cd{fill:#9f7928;}.ce{fill:#d8a537;}.cf{fill:#576071;}.cg{fill:#e8cab6;}.ch{fill:#947125;}.ci{fill:#51596a;}.cj{fill:#aa822b;}.ck{fill:#b18d79;}.cl{fill:#648e43;}.cm{fill:#ba9e8e;}.cn{fill:#916a59;}.co{fill:#b8c744;}.cp{fill:#1e6245;}.cq{fill:#e6e97c;}.cr{fill:#237250;}.cs{fill:#cfbfd6;}</style></defs><polygon class="a" points="7.81 352.34 53.82 347.99 237.39 327 352.49 312.54 792.85 341.72 728.21 378.87 360.45 396.92 76 375.16 7.81 352.34"/><g class="b"><polygon class="c" points="51.15 366.84 76 375.16 123.14 378.76 183.86 363.88 165.46 359.88 137.43 347.43 86.9 348.56 64.19 356.44 51.15 366.84"/><polygon class="c" points="177.78 333.81 237.39 327 287.59 332.57 326.48 338.74 316.66 346.46 322.51 361.52 344.4 367.6 368.67 373.96 313.55 386.04 245.51 379.54 200.97 375.42 251.62 360.56 217.69 346.46 214.77 339.93 208.4 343.95 177.78 333.81"/><polygon class="c" points="429.17 342.51 372.54 352.06 459.58 367.6 565 355.79 537.7 348.89 556 341.92 556.98 337.14 564.76 339.27 603.96 333.45 600.98 330.13 592.6 329.17 415.83 316.85 397.06 323.66 352.75 328.49 348 333.03 429.17 342.51"/><polygon class="c" points="595.21 367.6 616.59 363.26 651.15 354.73 688.63 357.1 707.51 361.61 744.14 369.71 728.21 378.87 653.37 382.54 595.21 367.6"/></g><polygon class="d" points="616.59 262.43 622.07 287 610.53 301.32 608.94 310.24 613.75 330.63 603.96 333.45 595.21 318.4 598.79 301.48 605.36 285.21 600.58 261.72 616.59 262.43"/><polygon class="e" points="612.72 289.98 622.07 287 608.94 310.24 598.99 311.83 603.57 300.33 612.72 289.98"/><polygon class="f" points="589.68 260.68 600.38 289.19 589.24 311.23 593.11 331.86 603.96 333.45 598.99 311.83 612.72 289.98 603.37 256.75 589.68 260.68"/><polygon class="d" points="570.86 295.55 553.62 270.61 544.59 273 544.86 278.44 550.7 296.88 548.04 324.74 556 341.92 564.76 339.27 560.25 319.44 560.51 302.98 570.86 295.55"/><polygon class="e" points="559.98 297.68 570.86 295.55 560.25 319.44 551.23 320.5 550.43 308.56 559.98 297.68"/><polygon class="f" points="544.86 278.44 559.98 297.68 551.23 320.5 556 341.92 543.27 341.13 538.53 319.17 544.39 300.55 524.16 274.06 544.86 278.44"/><polygon class="e" points="348 333.03 356.49 331.69 361.77 302.72 354.61 293.17 356.47 282.02 364.81 264.11 363.63 255.75 352.49 256.55 342.14 284.68 348.24 303.78 348 333.03"/><polygon class="d" points="345.32 283.88 356.47 282.02 361.77 302.72 353.55 305.37 343.73 294.23 345.32 283.88"/><polygon class="f" points="341.08 262.22 333.91 282.02 343.2 304.84 337.67 332.24 348 333.03 353.55 305.37 345.32 283.88 358.32 259.73 341.08 262.22"/><polygon class="e" points="406.35 324.45 414.84 322.07 420.13 298.3 412.96 288.74 414.82 277.6 423.16 259.69 421.98 251.33 410.84 252.13 400.49 280.25 406.59 299.36 406.35 324.45"/><polygon class="d" points="403.68 279.46 414.82 277.6 420.13 298.3 411.9 300.95 402.08 289.81 403.68 279.46"/><polygon class="f" points="399.43 257.8 392.26 277.6 401.55 300.42 397.06 323.66 406.35 324.45 411.9 300.95 403.68 279.46 416.68 255.31 399.43 257.8"/><polygon class="g" points="334.46 242.98 341.08 262.22 544.86 278.44 551.49 255.86 334.46 242.98"/><polygon class="h" points="544.86 278.44 616.59 262.43 621.37 245.22 571.66 245.22 543.8 260.58 544.86 278.44"/><polygon class="i" points="334.46 242.98 543.8 260.58 621.37 245.22 460.92 223.45 334.46 242.98"/><polygon class="i" points="344.4 248.81 537.7 267.43 537.7 271.97 347.05 258.14 344.4 248.81"/><polygon class="g" points="549.63 266.1 613.85 252.3 612.52 257.08 549.9 270.35 549.63 266.1"/><polygon class="j" points="512.54 245.8 544.08 253.12 587.21 245.22 577.27 239.23 568.08 237.99 542.07 236.83 525.55 242.82 512.54 245.8"/><polygon class="k" points="531.58 197.41 559.81 195.74 565 154.57 559.98 143.51 550.56 136.15 548.9 138.24 547.25 133.56 535.22 141.99 537.7 154.63 525.47 163.01 531.58 197.41"/><polygon class="l" points="560.97 130.78 552.82 192.99 549.63 187.12 558.79 128.06 560.97 130.78"/><polygon class="l" points="541.28 137.74 549.63 196.34 547.05 193.06 538.72 139.53 541.28 137.74"/><polygon class="l" points="563.05 150.28 556.98 195.91 560.97 196.34 565 154.57 563.05 150.28"/><polygon class="l" points="547.25 133.56 547.92 191.06 550.11 187.99 550.56 136.15 547.25 133.56"/><polygon class="l" points="534.03 157.24 546.63 194.69 541.95 196.34 535.22 171.17 532.13 158.45 534.03 157.24"/><polygon class="l" points="537.7 154.63 541.28 172.24 535.86 155.89 537.7 154.63"/><polygon class="l" points="525.47 163.01 529.1 160.52 537.7 195.09 529.73 198.44 525.47 163.01"/><polygon class="m" points="545.65 198.44 554.41 225.31 537.3 229.28 513.26 217.94 524.36 192.27 531.92 190.68 545.65 198.44"/><polygon class="n" points="517.62 180.2 548.44 187.69 552.82 190.88 545.65 198.44 524.36 192.27 517.62 180.2"/><polygon class="n" points="513.26 217.94 517.63 226.79 522.97 230.77 520.87 233.34 525.55 242.82 544.26 245.8 554.81 230.68 548.84 224.11 513.26 217.94"/><polygon class="o" points="545.65 198.44 554.81 191.47 567.92 193.46 577.27 216.95 562.17 223.91 548.84 224.11 545.65 198.44"/><polygon class="p" points="548.44 187.69 576.28 180.13 567.92 193.46 545.65 198.44 548.44 187.69"/><polygon class="p" points="548.84 224.11 577.27 216.95 573.81 224.71 566.95 229.28 570.75 231.55 564.98 244.48 544.26 245.8 548.84 224.11"/><polygon class="q" points="517.63 226.79 547.52 230.37 549.63 233.34 546.16 236.83 520.87 233.34 517.63 226.79"/><polygon class="k" points="547.52 230.37 573.81 224.71 570.75 231.55 546.16 236.83 547.52 230.37"/><polygon class="r" points="554.41 176.15 535.22 171.17 547.05 193.06 554.41 176.15"/><polygon class="r" points="554.41 176.15 567.35 165.2 581.74 185.3 554.41 176.15"/><polygon class="r" points="535.22 171.17 524.36 192.27 515.61 180.59 526.09 168.2 535.22 171.17"/><polygon class="s" points="526.11 135.75 535.22 120.56 547.25 133.56 539.38 145.57 526.11 135.75"/><polygon class="t" points="548.9 124.41 560.47 134.59 570.86 126.17 559.98 115.39 548.9 124.41"/><polygon class="t" points="556.32 144.01 565.95 139.53 572.85 150.94 562.13 157.24 556.32 144.01"/><polygon class="t" points="534.22 167.04 537.7 154.63 526.82 150.28 521.51 163.44 534.22 167.04"/><polygon class="s" points="542.62 164.6 550.56 155.19 556.98 164.6 547.69 171.17 542.62 164.6"/><polygon class="u" points="537.7 154.63 539.38 145.57 550.46 147.63 544.34 159.18 537.7 154.63"/><polygon class="v" points="534.61 133.56 537.1 130.48 540.28 133.56 536.6 137.54 534.61 133.56"/><polygon class="v" points="557 123.71 559.68 122.12 561.58 124.31 558.09 126.4 557 123.71"/><polygon class="v" points="561.67 147.09 564.26 145.3 565.95 148.29 563.05 150.28 561.67 147.09"/><polygon class="v" points="541.28 152.27 541.97 150.18 544.86 150.48 543.47 153.76 541.28 152.27"/><polygon class="v" points="528.64 156.35 532.12 157.24 531.03 161.03 527.94 159.73 528.64 156.35"/><polygon class="v" points="547.25 163.81 549.34 161.72 551.33 164.31 548.04 165.8 547.25 163.81"/><polygon class="w" points="327.54 307.76 331.66 348.42 323.86 349.95 322.64 350.3 315.34 305.37 327.54 307.76"/><polygon class="x" points="322.64 350.3 312.68 348.89 304.46 324.21 312.42 320.73 306.05 302.92 317.46 301.92 322.64 350.3"/><polygon class="m" points="198.96 154.05 277.32 145.77 293.72 274.86 221.67 288.12 210.79 247.13 198.96 154.05"/><polygon class="y" points="212.65 163.94 267.37 158.68 284.29 276.18 260.94 280.5 234.65 279.43 212.65 163.94"/><polygon class="z" points="230.16 162.26 246.95 278.64 261.25 284.14 245.15 198.84 242.27 184.91 238.02 161.5 230.16 162.26"/><polygon class="z" points="247.06 160.63 267.58 282.15 281.83 280.23 254.82 159.88 247.06 160.63"/><polygon class="w" points="279.01 359.82 289.6 356.83 285.62 308.82 272.09 310.68 279.01 359.82"/><polygon class="x" points="276.92 314.39 276.92 334.03 279.01 359.82 265.92 356.74 259.39 330.85 268.64 327.13 265.19 304.84 276.92 314.39"/><polygon class="w" points="217.69 346.46 227.84 344.46 238.65 297.26 226.25 298.21 217.69 346.46"/><polygon class="x" points="231.25 295.29 217.69 346.46 208.4 343.95 204.76 319.83 213.71 317.4 215.57 297.26 225.19 292.36 231.25 295.29"/><polygon class="aa" points="221.67 280.5 293.72 274.86 326.48 295.29 276.86 306.96 237.06 292.36 221.67 280.5"/><polygon class="n" points="198.96 154.05 189.74 165.91 204.76 242.27 207.84 247.25 210.4 270.98 215.57 297.26 276.92 314.39 283.23 305.64 274.48 300.06 221.67 280.5 198.96 154.05"/><polygon class="o" points="276.92 314.39 327.54 307.76 326.48 295.29 274.48 300.06 276.92 314.39"/><polygon class="ab" points="380.28 334.03 363.1 324.81 384.33 317.44 380.28 334.03"/><polygon class="ac" points="384.33 305.37 374.24 313.07 380.28 334.03 395.84 303.78 384.33 305.37"/><polygon class="ad" points="420.68 313.07 384.33 305.37 393.41 298.21 422.8 301.92 420.68 313.07"/><polygon class="ae" points="373.45 150.94 364.81 264.11 436.74 278.44 526.55 271.97 521.24 111.74 384.59 122.82 373.45 150.94"/><polygon class="af" points="461.54 246.2 440.85 305.37 432.32 302.92 443.55 240.76 461.54 246.2"/><polygon class="ag" points="503.07 33.66 508.57 56.5 513.28 115.85 485.03 108.75 453.32 94.76 503.07 33.66"/><polygon class="ag" points="403.56 33.66 398.06 56.5 393.35 115.85 421.6 108.75 453.32 94.76 403.56 33.66"/><polygon class="ah" points="494.51 45.91 508.57 56.5 436.2 71.87 398.06 56.5 412.12 45.91 494.51 45.91"/><polygon class="ai" points="404.36 79.73 393.35 115.85 421.6 108.75 416.9 75.74 404.36 79.73"/><polygon class="ai" points="513.28 115.85 502.27 79.73 485.03 75.05 479.27 91.4 485.03 108.75 513.28 115.85"/><polygon class="ab" points="413.49 218.25 401.31 290.78 417.85 300.6 420.68 313.07 412.12 335.47 425.53 347.24 436.74 342.54 440.85 305.37 429.7 298.74 429.7 291.57 452.25 250.58 441.64 231.08 413.49 218.25"/><polygon class="ab" points="487.28 215.01 494.51 285.74 485.03 296.35 485.71 304.84 491.52 332.12 480.93 346.46 463.94 341.99 466.24 303 471.57 295.29 467 289.98 452.25 250.58 457.12 224.44 487.28 215.01"/><polygon class="aj" points="521.24 111.74 529.33 173.68 528.67 199.5 508.57 208.99 492.5 194.1 500.56 115.85 521.24 111.74"/><polygon class="ai" points="487.28 215.01 452.25 250.58 413.49 218.25 446.95 208.99 487.28 215.01"/><polygon class="ab" points="426.94 100.13 389 111.74 409.63 201.45 422.27 206.72 484.36 207.29 492.5 194.1 513.37 110.48 480.94 103.36 426.94 100.13"/><polygon class="ad" points="485.71 163.94 468.64 202.82 431.82 205.01 417.85 163.94 455.11 139.73 485.71 163.94"/><polygon class="ak" points="398.06 138.21 437.39 126.53 455.17 126.27 469.24 126.53 506.45 138.21 485.71 163.94 458.55 156.78 453.32 144.44 448.3 156.78 417.85 163.94 398.06 138.21"/><polygon class="af" points="422.8 154.79 425.72 150.94 429.7 154.26 426.25 157.58 422.8 154.79"/><polygon class="af" points="480.93 154.79 478.01 150.94 474.04 154.26 477.48 157.58 480.93 154.79"/><polygon class="al" points="492.5 194.1 467 196.36 453.91 198.94 437.39 198.99 409.63 201.45 413.49 218.25 440.38 217.07 455.01 214.46 465.26 215.98 487.28 215.01 492.5 194.1"/><path class="a" d="M437.4,199l3,18.08L465.26,216,467,196.36Zm21.29,13-12.95,1-1.38-9.82,15.22-1.53Z"/><polygon class="ab" points="492.5 194.1 529.33 173.68 533.72 207.29 520.98 218.6 508.57 217.07 492.5 194.1"/><polygon class="aj" points="467 289.98 494.51 285.74 485.71 304.84 466.24 303 467 289.98"/><polygon class="aj" points="401.31 290.78 429.7 291.57 440.85 305.37 420.68 313.07 401.31 290.78"/><polygon class="al" points="463.13 355.79 463.94 341.99 491.52 332.12 496.57 355.79 482.24 355.79 479.19 352.6 476.13 355.79 463.13 355.79"/><polygon class="al" points="435.27 355.79 436.74 342.54 412.12 335.47 404.36 355.79 415.83 355.79 420.55 353.4 422.29 355.79 435.27 355.79"/><polygon class="ai" points="482.24 355.79 477.48 337.14 476.13 355.79 482.24 355.79"/><polygon class="ai" points="415.83 355.79 423.33 338.69 422.29 355.79 415.83 355.79"/><polygon class="am" points="516 144.31 518.39 151.67 516.6 153.66 514.81 146.5 516 144.31"/><polygon class="am" points="507.64 163.41 510.63 162.62 514.21 172.37 511.43 173.36 507.64 163.41"/><polygon class="an" points="473.42 239.83 477.99 238.64 479.39 247 476.6 248.79 473.42 239.83"/><polygon class="an" points="465.85 251.37 467.84 250.18 470.43 258.54 468.04 258.94 465.85 251.37"/><polygon class="an" points="472.82 271.47 475.61 270.28 477 278.04 475.21 278.64 472.82 271.47"/><polygon class="an" points="440.58 255.95 437.2 264.11 435.21 262.92 437.79 254.76 440.58 255.95"/><polygon class="an" points="413.51 258.74 416.1 259.14 414.11 267.1 412.12 266.3 413.51 258.74"/><polygon class="an" points="419.49 270.08 421.87 271.27 419.88 278.44 417.3 277.64 419.49 270.08"/><polygon class="an" points="472.02 315.45 471.43 324.01 474.21 324.21 474.01 317.05 472.02 315.45"/><polygon class="an" points="431.43 316.65 433.81 317.25 432.62 324.81 430.83 324.01 431.43 316.65"/><polygon class="an" points="422.07 324.41 424.46 325.8 421.67 332.57 419.49 331.97 422.07 324.41"/><polygon class="ao" points="506.85 194.46 509.04 193.06 512.02 200.23 509.63 201.62 506.85 194.46"/><polygon class="ao" points="522.17 191.67 524.36 191.07 526.55 198.84 523.76 199.83 522.17 191.67"/><polygon class="ao" points="490.13 172.97 492.32 174.16 489.93 181.32 487.55 180.13 490.13 172.97"/><polygon class="af" points="469.24 126.53 521.24 111.74 512.7 108.55 503.07 108.75 503.53 105.12 496.57 102.52 437.99 99.13 410.06 102.52 406.05 103.91 404.36 108.75 397.34 106.94 380.88 112.67 437.39 126.53 469.24 126.53"/><polygon class="ae" points="469.24 126.53 503.53 105.12 512.7 108.55 469.24 126.53"/><polygon class="ae" points="437.39 126.53 406.05 103.91 397.33 106.9 437.39 126.53"/><polygon class="af" points="508.57 56.5 453.32 55.15 492.94 65.1 501.08 65.1 508.57 56.5"/><polygon class="ae" points="482.55 65.1 508.57 56.5 502.27 79.73 491.5 82.85 482.55 65.1"/><polygon class="ap" points="501.08 66.7 494.51 68.69 495.7 77.04 501.08 66.7"/><polygon class="af" points="398.06 56.5 453.32 55.15 413.69 65.1 405.55 65.1 398.06 56.5"/><polygon class="ae" points="424.08 65.1 398.06 56.5 404.36 79.73 415.13 82.85 424.08 65.1"/><polygon class="ap" points="405.55 66.7 412.12 68.69 410.98 75.05 405.55 66.7"/><polygon class="ad" points="463.86 39.5 453.32 55.15 442.77 39.5 412.12 45.91 416.81 103.36 437.39 126.53 452.92 137.39 469.24 126.53 489.82 103.36 494.51 45.91 463.86 39.5"/><polygon class="af" points="429.44 75.05 440.78 87 453.32 91.97 448.34 69.88 442.77 65.1 434.61 66.89 429.44 75.05"/><polygon class="ag" points="429.44 75.05 442.77 65.1 437.79 62.32 427.36 68.58 429.44 75.05"/><circle class="aq" cx="437.4" cy="78.72" r="2.99"/><polygon class="ar" points="435.06 108.75 433.81 100.13 442.17 107.43 435.06 108.75"/><polygon class="af" points="477.2 75.05 465.85 87 453.32 91.97 458.29 69.88 463.86 65.1 472.02 66.89 477.2 75.05"/><polygon class="ag" points="477.2 75.05 463.86 65.1 468.84 62.32 479.27 68.58 477.2 75.05"/><circle class="aq" cx="465.65" cy="78.72" r="2.99"/><polygon class="ak" points="458.29 69.88 453.32 69.88 448.34 69.88 440.78 87 448.94 89.58 457.69 89.58 465.85 87 458.29 69.88"/><polygon class="ar" points="471.57 108.75 472.82 100.13 464.46 107.43 471.57 108.75"/><polygon class="ae" points="453.32 99.13 435.06 108.75 437.79 111.74 453.32 103.91 468.84 111.74 471.57 108.75 453.32 99.13"/><polygon class="ag" points="453.32 87 440.78 87 447.05 94.76 449.63 92.3 453.32 94.76 457.1 92.86 459.58 94.76 465.85 87 453.32 87"/><polygon class="as" points="447.05 94.76 448.89 89.84 453.32 94.76 447.05 94.76"/><polygon class="as" points="459.58 94.76 457.74 89.84 453.32 94.76 459.58 94.76"/><polygon class="af" points="415.13 82.85 429.41 89.07 416.81 103.36 415.13 82.85"/><polygon class="af" points="491.5 82.85 477.22 89.07 489.82 103.36 491.5 82.85"/><polygon class="al" points="414.31 72.7 410.06 102.52 421.6 108.75 414.31 72.7"/><polygon class="al" points="492.32 72.7 496.57 102.52 485.03 108.75 492.32 72.7"/><polygon class="at" points="453.32 110.48 437.39 126.53 443.18 133.03 445.74 133.46 447.05 137.39 453.32 144.44 457.12 136.85 460.92 135.88 469.24 126.53 453.32 110.48"/><polygon class="ai" points="453.32 110.48 460.92 135.88 453.32 144.44 453.32 110.48"/><polygon class="ai" points="448.3 115.54 447.05 137.39 443.18 133.03 448.3 115.54"/><polygon class="al" points="466.25 8.85 453.32 8.85 440.38 8.85 435.06 20.13 425.69 18.75 403.56 33.66 412.12 45.91 438.49 55.15 444.36 53.3 453.32 60.35 462.42 57.16 467 52.23 471.57 53.95 494.51 45.91 503.07 33.66 479.27 17.63 469.24 20.92 466.25 8.85"/><polygon class="ag" points="453.32 60.35 440.38 8.85 425.69 18.75 438.49 55.15 453.32 60.35"/><polygon class="ag" points="466.25 8.85 462.42 57.16 471.57 53.95 479.27 17.63 466.25 8.85"/><polygon class="au" points="412.12 45.91 426.3 39.56 415.13 25.86 407.48 15.35 403.56 33.66 412.12 45.91"/><polygon class="s" points="415.13 25.86 403.56 33.66 407.48 3.21 415.13 25.86"/><polygon class="au" points="494.51 45.91 480.34 39.56 491.5 25.86 499.16 15.35 503.07 33.66 494.51 45.91"/><polygon class="s" points="491.5 25.86 503.07 33.66 499.16 3.21 491.5 25.86"/><polygon class="aj" points="362.3 124.41 384.59 122.82 398.06 138.21 399.2 156.1 373.45 150.94 362.3 124.41"/><polygon class="av" points="362.3 124.41 385.94 77.5 396.61 74.76 404.36 79.73 398.06 138.21 362.3 124.41"/><polygon class="ab" points="398.1 67.65 413.49 62.72 415.83 65.9 414.31 72.7 404.36 79.73 398.1 67.65"/><polygon class="al" points="413.49 62.72 421.6 62.32 414.31 72.7 413.49 62.72"/><polygon class="aj" points="404.36 79.73 400.05 57.16 399.2 50.77 390.21 46.44 385.94 77.5 404.36 79.73"/><polygon class="ab" points="390.21 46.44 408.12 40.18 411.07 41.9 412.12 45.91 400.05 57.16 390.21 46.44"/><polygon class="al" points="408.12 40.18 416.05 37.61 412.12 45.91 408.12 40.18"/><polygon class="am" points="381.67 138.54 384.26 137.74 387.25 143.51 384.86 144.71 381.67 138.54"/><polygon class="aw" points="375.5 119.03 378.69 111.67 380.88 112.67 378.49 120.03 375.5 119.03"/><polygon class="aw" points="390.23 106.1 392.62 106.5 390.63 114.66 389.04 113.86 390.23 106.1"/><polygon class="aw" points="387.64 88.98 390.03 89.58 387.64 96.55 385.45 95.95 387.64 88.98"/><polygon class="aw" points="508.57 217.07 496.57 238.77 505.06 240.1 512.22 232.93 508.57 217.07"/><polygon class="ax" points="488.67 228.58 522.17 242.67 552.62 249.72 542.67 281.82 506.85 302.92 478.81 271.32 488.67 228.58"/><polygon class="ay" points="522.17 242.67 506.85 302.92 545.46 291.87 558.3 244.91 522.17 242.67"/><polygon class="al" points="509.19 268.58 520.88 271.51 513.82 275.52 509.19 268.58"/><polygon class="az" points="495.01 254.06 503.47 253.56 509.19 258.24 507.55 260.13 502.1 256.2 495.5 256.85 495.01 254.06"/><polygon class="az" points="540.21 265.76 533.03 261.27 525.76 262.63 526.3 265.08 532.96 264.24 538.44 267.97 540.21 265.76"/><polygon class="ba" points="500.55 273.13 512.49 280.74 524.81 279.73 524.81 284.35 511.22 285.74 499.49 277.13 500.55 273.13"/><polygon class="s" points="486.48 265.75 492.5 261.27 496.04 268.58 489.14 272.79 486.48 265.75"/><polygon class="bb" points="532.99 278.44 540.21 274.46 543.8 280.74 536.02 285.74 532.99 278.44"/><polygon class="bc" points="496.96 243.28 505.72 242.66 506.38 245.6 496.57 247.13 496.96 243.28"/><polygon class="bd" points="533.58 246.2 541.81 251.04 540.22 254.63 533.25 250.31 533.58 246.2"/><polygon class="aw" points="505.06 240.1 516.8 255.55 523.1 253.55 524.81 251.11 526.51 252.46 533.25 250.31 540.29 229.5 520.38 229.78 505.06 240.1"/><polygon class="av" points="508.57 217.07 505.06 240.1 540.29 229.5 533.72 207.29 508.57 217.07"/><polygon class="ao" points="526.52 252.48 523.1 236.25 523.1 253.56 526.52 252.48"/><polygon class="al" points="516.8 255.55 521.08 261.03 523.1 253.56 518.89 251.37 516.8 255.55"/><polygon class="al" points="533.25 250.31 529.89 257.84 526.52 252.48 529.33 248.39 533.25 250.31"/><polygon class="ay" points="133.67 90.38 161.99 72.47 159.51 82.87 152.24 99.73 133.67 90.38"/><polygon class="bd" points="159.51 82.87 145.13 95.4 155.15 101.19 159.51 82.87"/><polygon class="be" points="63.17 187.49 79.89 202.42 91.79 194.96 90.96 180.14 63.17 187.49"/><polygon class="bf" points="83.96 162.62 63.17 187.49 85.94 186.56 83.96 162.62"/><polygon class="be" points="66.36 155.45 84.86 182.52 99 186.56 110.94 175.55 111.3 151.53 95.41 149.53 66.36 155.45"/><path class="bg" d="M87.27,157.43l8.14,21s11.72-1.66,11.83-2.46,3.89-13.33,3.89-13.33l-5.5-3.45-5.43-5.12Z"/><polygon class="be" points="162.29 116.93 154.42 131.97 146.16 109.42 155.15 107.09 162.29 116.93"/><polygon class="ax" points="150.44 348.89 165.46 359.88 150.44 360.56 138.2 351.53 150.44 348.89"/><polygon class="al" points="165.46 359.88 160.42 366.5 147.16 366.5 137.2 356.25 135.35 366.5 130.11 366.5 126.72 351.07 138.2 351.53 165.46 359.88"/><polygon class="h" points="53.82 347.99 51.15 366.84 77.24 354.76 53.82 347.99"/><polygon class="g" points="82.54 363.1 68.49 341.01 83.17 334.03 82.54 363.1"/><polygon class="o" points="80.96 348.99 68.49 341.01 53.82 347.99 82.54 363.1 85.94 354.76 80.96 348.99"/><polygon class="ay" points="54.95 227.49 78.12 247 83.96 246.49 85.94 238.86 73.52 215.95 54.95 227.49"/><polygon class="ax" points="84.86 182.52 58.66 210.93 54.95 227.49 90.84 218.47 93.95 198.84 84.86 182.52"/><polygon class="ax" points="95.41 178.41 92.63 188.36 108.28 212.37 140.96 209.55 137.01 182.52 119.58 182.52 95.41 178.41"/><polygon class="i" points="84.86 182.52 90.84 218.47 116.79 227.49 145.13 219.51 137.01 182.52 132.98 204.41 107.35 207.79 91.23 182.52 84.86 182.52"/><polygon class="g" points="88.65 182.52 105.63 210.93 133.67 207.79 139.72 194.52 137.01 182.52 131.34 203.15 108.55 206.6 92.63 181.13 88.65 182.52"/><polygon class="bh" points="95.41 178.41 84.86 182.52 122.68 198.84 137.01 182.52 127.19 179.1 95.41 178.41"/><polygon class="ay" points="127.19 179.1 121.55 190.21 95.41 178.41 105.63 159.17 124.87 148.79 127.19 179.1"/><polygon class="bd" points="105.63 159.17 127.19 179.1 133.52 166.6 122.68 155.45 105.63 159.17"/><polygon class="ay" points="151.8 108.75 154.65 133.96 105.63 159.17 97.93 125.2 122.88 93.15 151.8 108.75"/><polygon class="bc" points="121.55 115.85 135.88 130.25 143.57 127.46 152.47 114.66 148.35 114.19 141.18 118.7 134.02 120.03 127.39 115.85 121.55 115.85"/><polygon class="be" points="135.81 121.32 121.55 115.85 122.54 112.53 132.98 117.51 135.81 121.32"/><polygon class="be" points="141.98 115.85 148.15 109.42 152.24 112.63 141.52 118.9 141.98 115.85"/><polygon class="ax" points="132.98 117.51 135.88 130.25 143.57 131.05 143.57 127.46 141.98 115.85 132.98 117.51"/><circle class="as" cx="128.68" cy="124.94" r="2.65"/><circle class="as" cx="147.79" cy="122.29" r="2.65"/><polygon class="bi" points="120.09 162.62 133.52 166.6 170.24 154.52 137.01 142.62 120.09 162.62"/><polygon class="bj" points="163.54 152.64 140.09 160.33 123.69 159.44 122.68 157.43 137.93 150.88 157 148.79 163.54 152.64"/><polygon class="bk" points="160.44 151.77 123.69 159.44 134.92 143.61 144.17 143.61 160.44 151.77"/><polygon class="bl" points="139.19 145.8 140.96 155.84 135.88 144.21 139.19 145.8"/><polygon class="bl" points="131.69 148.16 133.67 157.36 129.17 150.95 131.69 148.16"/><polygon class="bl" points="147.35 145 149.54 154.05 150.44 145.7 147.35 145"/><polygon class="bm" points="105.63 159.17 135.88 130.25 157.2 136.05 169.44 138.21 170.24 154.52 163.54 152.64 161.99 150.21 160.44 151.77 139.19 145.8 120.09 162.62 105.63 159.17"/><polygon class="bn" points="163.54 152.64 162.18 147.09 160.44 151.77 163.54 152.64"/><polygon class="bo" points="135.88 130.25 143.57 127.46 169.44 138.21 162.29 140.83 155.15 139.27 135.88 130.25"/><polygon class="ag" points="155.15 139.27 169.44 138.21 162.18 147.09 155.15 139.27"/><polygon class="h" points="90.84 218.47 145.13 219.51 136.44 244.84 118.9 246.33 90.06 238.86 90.84 218.47"/><polygon class="i" points="133.52 253.35 115.69 246.11 89.8 245.98 73.52 282.74 87.85 338.74 119.29 338.74 140.96 294.76 133.52 253.35"/><polygon class="al" points="133.52 253.35 136.44 244.84 120.09 242.73 115.69 243.55 111.99 241.69 90.06 238.86 89.8 245.98 111.3 249.6 114.18 248.06 117.46 250.64 133.52 253.35"/><polygon class="bp" points="111.99 241.69 111.3 249.6 117.46 250.64 120.09 242.73 111.99 241.69"/><polygon class="h" points="73.52 282.74 140.96 294.76 148.09 335.47 122.16 364.61 110.81 358.71 93.56 341.01 73.52 282.74"/><polygon class="bq" points="73.52 282.74 113.52 352.06 98 351.07 80.96 348.99 73.52 282.74"/><polygon class="ax" points="89.8 245.98 100.2 240.17 99.39 250.84 93.95 258.74 86.3 253.88 84.86 247 89.8 245.98"/><polygon class="br" points="78.12 247 85.94 238.86 89.8 245.98 86.3 253.88 78.12 247"/><polygon class="ay" points="100.2 240.17 108.15 253.88 96.41 265.31 93.95 258.74 100.2 240.17"/><polygon class="n" points="150.44 348.89 122.16 364.61 112.13 358.71 113.52 352.06 148.09 335.47 150.44 348.89"/><polygon class="p" points="122.16 364.61 110.81 361.37 86.9 362.41 82.54 363.1 80.96 348.99 96.81 343.82 113.52 352.06 122.16 364.61"/><polygon class="ax" points="86.9 362.41 99.16 352.06 110.81 361.37 86.9 362.41"/><polygon class="al" points="86.9 362.41 91.45 370.25 107.24 370.25 110.81 361.37 86.9 362.41"/><polygon class="bf" points="126.29 102.22 103.77 133.03 101.05 148.79 87.27 157.43 66.36 155.45 76.15 114.19 73.52 103.91 91.06 89.33 117.6 81.16 148.9 97.34 166.27 108.75 162.29 116.93 126.29 102.22"/><polygon class="bs" points="169.44 102.22 117.6 81.16 122.88 93.15 166.27 108.75 169.44 102.22"/><polygon class="be" points="122.88 93.15 93.95 121.32 85.94 108.16 90.06 98.21 103.25 97.34 120.09 86.82 122.88 93.15"/><polygon class="be" points="93.95 121.32 103.77 133.03 105.63 159.17 87.27 157.43 93.95 121.32"/><polygon class="be" points="85.94 108.16 66.36 155.45 73.52 103.91 81.68 102.22 85.94 108.16"/><polygon class="ay" points="103.25 97.34 80.89 77.84 73.52 103.91 85.94 108.16 90.06 101.19 97.09 101.19 103.25 97.34"/><polygon class="bd" points="85.94 108.16 84.07 91.29 97.09 101.19 85.94 108.16"/><polygon class="af" points="137.01 177.54 166.35 186.28 178.18 218.47 148.9 243.55 136.44 230.41 135.71 223.45 131.42 225.1 126.03 219.42 128.51 209.94 131.23 207.59 130.25 203.31 137.01 177.54"/><polygon class="ae" points="148.9 243.55 166.35 186.28 196.91 195.39 182.58 237.18 171.69 239.24 168.21 238.36 165.4 240.43 148.9 243.55"/><polygon class="bt" points="162.94 197.46 156.11 203.15 157.07 216.74 161.99 206.6 162.94 197.46"/><polygon class="ab" points="162.94 197.46 165.56 206.1 157.07 216.74 162.94 197.46"/><polygon class="av" points="130.25 203.31 140.96 214.92 136.44 230.41 131.42 225.1 134.62 217.84 128.51 209.94 130.25 203.31"/><polygon class="av" points="188.44 220.07 170.24 221.39 165.4 240.43 171.69 239.24 176.61 227.49 186.39 226.07 188.44 220.07"/><polygon class="ay" points="190.54 213.96 196.91 221.92 182.58 237.18 184.97 223.45 190.54 213.96"/><polygon class="ax" points="190.54 213.96 178.7 215.95 175.39 230.41 182.58 237.18 190.54 213.96"/><polygon class="av" points="157.47 185.78 151.4 173.76 139.19 167.28 139.72 173.76 137.46 175.06 135.88 182.13 145.13 188.82 157.47 185.78"/><polygon class="aw" points="139.19 167.28 152.1 187.1 149.64 188.82 137.46 175.06 139.19 167.28"/><polygon class="av" points="172.94 191.28 183.97 182.52 200.49 184.24 196.91 188.62 198.18 191.28 195.03 200.85 182.96 199.81 172.94 191.28"/><polygon class="aw" points="178.18 195.39 200.49 184.24 198.18 191.28 180.24 197.46 178.18 195.39"/><circle class="bu" cx="149.64" cy="191.28" r="9.57"/><circle class="at" cx="149.64" cy="191.28" r="2.46"/><circle class="bu" cx="177.78" cy="199.53" r="9.57"/><circle class="at" cx="177.78" cy="199.53" r="2.46"/><polygon class="bv" points="364.81 219.42 375.11 227.54 380.28 202.42 366.95 210.54 364.81 219.42"/><polygon class="bw" points="316.66 184.91 343.36 210.73 348.24 219.42 341.03 228.29 323.75 221.92 316.66 206.4 316.66 184.91"/><polygon class="bx" points="187.79 253.88 175.1 264.11 181.07 270.98 197.39 269.29 195.93 257.26 187.79 253.88"/><polygon class="by" points="208.4 250.84 187.79 253.88 197.39 269.29 210.13 258.27 208.4 250.84"/><polygon class="bx" points="208.4 250.84 200.05 256.35 185.19 253.35 183.86 250.84 196.13 247 208.4 248.85 208.4 250.84"/><polygon class="bw" points="245.15 198.84 230.16 234.53 232.02 242.98 242.51 247.91 257.1 229.09 255.38 210.93 245.15 198.84"/><polygon class="at" points="237.39 327 276.92 334.03 300.61 329.35 316.66 322.35 322.57 323.93 335.5 320.76 322.57 281.76 306.37 249.72 260.38 282.29 237.39 327"/><polygon class="bz" points="286.81 298.21 311.34 353.56 323.86 349.95 320.74 287.11 311.23 269.29 286.81 298.21"/><polygon class="br" points="270.06 269.29 299.42 287.59 284.22 318.97 268.24 325.24 256.56 316.44 260.38 282.29 270.06 269.29"/><polygon class="bz" points="284.22 318.97 256.56 316.44 255.38 327 264.97 334.03 276.92 334.03 284.22 318.97"/><polygon class="ca" points="299.42 287.59 315.4 269.29 302.73 256.35 286.81 260.93 279.47 277.72 299.42 287.59"/><polygon class="cb" points="302.73 253.35 330.13 304.71 329.62 297.72 317.53 248.99 311.09 245.01 302.73 253.35"/><polygon class="u" points="306.37 254.54 329.62 297.72 335.5 320.76 302.73 256.35 304.77 250.84 306.37 254.54"/><polygon class="cb" points="302.73 251.97 243.57 317.44 244.22 309.83 267.05 252.37 276.6 243.55 302.73 251.97"/><polygon class="bz" points="302.73 256.35 237.39 327 244.22 309.83 298.31 255.86 300.48 251.97 302.73 256.35"/><polygon class="cc" points="261.86 192.61 245.15 198.84 257.1 229.09 293.65 245.01 311.36 243.81 323.75 221.92 316.66 184.91 287.57 183.58 261.86 192.61"/><polygon class="at" points="323.75 221.92 257.1 229.09 267.05 252.37 288.8 254.8 300.48 254.43 306.37 254.54 317.53 248.99 323.75 221.92"/><polygon class="bz" points="298.82 252.3 289.66 250.84 288.8 254.8 298.31 255.86 298.82 252.3"/><polygon class="bz" points="297.82 241.82 289.66 240.76 290.6 245.01 299.42 246.33 297.82 241.82"/><polygon class="cd" points="298.82 232 302.73 256.35 306.37 254.54 305.39 229.62 298.82 232"/><polygon class="ca" points="294.91 233.33 298.31 255.86 302.73 256.35 300.48 234.53 294.91 233.33"/><polygon class="br" points="264.97 190.21 272.09 215.42 300.48 234.53 303.53 210.93 288.8 191.54 264.97 190.21"/><polygon class="ce" points="300.48 234.53 286.81 202.42 293.58 229.88 300.48 234.53"/><polygon class="cf" points="267.05 190.33 275.54 213.83 293.24 228.52 296.13 233.53 274.48 233.46 271.56 223.65 260.38 222.05 267.05 190.33"/><polygon class="cf" points="288.8 191.54 316.66 206.4 308.7 216.22 314.54 222.85 301.54 232 300.84 227.82 301.74 210.93 288.8 191.54"/><polygon class="bz" points="267.05 190.33 262.27 190.21 257.1 229.09 270.3 227.67 273.15 237.18 300.48 234.53 293.24 228.52 278.45 230.28 273.15 221.26 262.8 218.47 267.05 190.33"/><polygon class="bz" points="288.8 191.54 313.02 206.93 305.52 216.22 311.09 222.32 300.84 227.82 300.48 234.53 317.53 223.65 311.62 215.95 320.36 204.21 292.25 186.56 288.8 191.54"/><polygon class="at" points="316.66 170.38 310.26 155.45 296.63 144.44 286.81 161.42 296.7 173.76 316.66 170.38"/><polygon class="ai" points="223.26 154.52 226.25 177.34 234.91 176.95 242.27 184.91 267.05 180.33 262.07 153.31 233.41 134.76 223.26 154.52"/><polygon class="s" points="263.66 171.57 242.27 184.91 286.81 202.42 288.8 191.54 316.66 170.38 294.64 162.62 263.66 171.57"/><polygon class="bx" points="311.09 84.34 313.05 91.29 313.02 95.35 316.95 105.12 319.89 115.54 318.92 120.23 321.4 120.88 329.13 148.29 310.26 155.45 306.05 154.52 303.99 157.83 300.48 159.17 283.76 182.78 271.82 183.58 241.57 141.66 235.2 121.75 248.21 97.34 311.09 84.34"/><polygon class="by" points="248.21 97.34 282.7 169.52 290.6 186.56 288.8 191.54 272.35 188.89 251.33 165.91 248.24 159.73 243.57 157.43 232.28 145.1 230.16 120.43 248.21 97.34"/><polygon class="bv" points="300.48 159.17 273.15 169.38 290.6 186.56 300.48 159.17"/><polygon class="by" points="311.36 107.43 295.44 133.03 273.15 119.1 280.84 114.33 289.87 113.66 294.38 115.54 296.63 111.54 302.87 107.43 311.36 107.43"/><polygon class="cg" points="289.87 113.66 295.44 133.03 299.72 132.53 303.53 130.25 296.63 111.54 289.87 113.66"/><polygon class="bv" points="295.44 133.03 301.01 135.88 303.53 130.25 295.44 133.03"/><polygon class="bv" points="289.87 141.72 302.97 141.03 310.83 134.76 313.02 137.44 303.96 145 289.63 145.8 289.87 141.72"/><polygon class="bv" points="243.57 157.43 251.62 151.77 251.33 165.91 243.57 157.43"/><polygon class="bv" points="237.59 145.8 242.97 141.22 246.95 148.79 237.59 145.8"/><polygon class="as" points="279.12 122.82 284.03 123.48 287.48 120.56 288.94 122.42 284.69 126.27 279.12 125.47 279.12 122.82"/><polygon class="as" points="302.47 115.25 307.38 115.92 310.83 113 312.29 114.86 308.04 118.7 302.47 117.91 302.47 115.25"/><polygon class="at" points="311.09 84.34 299.48 93.17 291.59 94.42 288.94 101.19 250.54 102.22 248.34 110.88 253.29 113 261.34 144.44 254.04 149.48 241.44 135.88 232.28 145.1 223.26 154.52 221.87 144.44 224.86 134.76 219.69 128.63 217.69 114.19 231.62 102.22 232.18 93.15 242.27 78.5 268.37 76.12 280.44 68.95 311.09 84.34"/><polygon class="cb" points="288.94 101.19 242.27 78.5 280.44 68.95 299.48 93.17 288.94 101.19"/><polygon class="ai" points="250.54 102.22 232.18 93.15 217.69 114.19 250.54 102.22"/><polygon class="ai" points="250.54 102.22 219.69 128.63 221.87 144.44 253.29 113 250.54 102.22"/><polygon class="at" points="273.15 119.1 274.34 115.25 285.75 110.48 289.87 113.66 273.15 119.1"/><polygon class="at" points="296.63 111.54 297.82 106.76 309.1 104.77 311.36 107.43 296.63 111.54"/><polygon class="ch" points="278.19 108.36 274.48 105.44 264.66 106.76 270.5 135.42 278.19 135.55 281.11 155.45 291.86 155.45 293.58 152.93 284.69 152 282.17 130.78 273.41 131.04 269.3 109.95 278.19 108.36"/><polygon class="ch" points="316.95 105.12 313.05 91.29 302.07 97.08 301.54 100.13 310.56 96.94 316.95 105.12"/><polygon class="ch" points="313.61 145.1 315.74 146.56 323.43 142.58 317.19 123.48 321.4 120.88 319.89 115.54 311.62 122.15 319.72 140.73 313.61 145.1"/><polygon class="ch" points="303.99 157.83 303.53 150.68 307.38 148.79 310.26 155.45 303.99 157.83"/><polygon class="ch" points="288.94 101.19 286.81 106.36 291.46 108.75 293.58 104.97 288.94 101.19"/><polygon class="at" points="243.57 157.43 226.25 177.34 242.27 184.91 243.57 157.43"/><polygon class="ca" points="296.05 319.06 321.83 309.07 322.57 323.93 315.4 331.38 300.61 329.35 296.05 319.06"/><polygon class="s" points="276.92 334.03 264.97 358.71 255.38 358.04 253.64 342.51 255.38 327 276.92 334.03"/><polygon class="s" points="300.61 329.35 311.34 353.56 318.29 353.56 323.86 349.95 322.57 323.93 300.61 329.35"/><polygon class="cb" points="264.97 358.71 270.84 373.96 258.17 376.75 245.51 373.96 251.62 360.56 259.53 356.25 264.97 358.71"/><polygon class="ci" points="251.62 360.56 253.64 342.51 267.44 344.91 264.97 358.71 251.62 360.56"/><rect class="at" x="245.51" y="373.96" width="25.33" height="5.57"/><polygon class="bz" points="256.32 359.91 257.49 347.99 263.17 348.89 261.38 359.2 259.3 361.52 256.32 359.91"/><polygon class="ce" points="261.38 359.2 262.27 366.5 257.49 367 256.32 359.91 261.38 359.2"/><polygon class="cb" points="311.34 353.56 311.34 367.6 314.91 369.88 319.68 367.6 333.71 370.88 344.4 367.6 330.84 355.94 326.15 354.76 321.27 348.89 315.39 352.39 311.34 353.56"/><polygon class="ci" points="315.39 352.39 318.39 335.26 329.63 338.74 323.86 349.95 315.39 352.39"/><polygon class="at" points="344.4 373.17 328.94 373.17 319.68 367.6 316.9 373.17 311.34 373.17 311.34 367.6 344.4 367.6 344.4 373.17"/><polygon class="ce" points="319.98 351.07 327.52 358.71 330.84 355.94 323.86 349.95 322.57 348.99 319.98 351.07"/><polygon class="bz" points="327.52 342.85 321.18 339.93 319.98 351.07 323.86 349.95 327.52 342.85"/><polygon class="cc" points="230.16 234.53 211.32 244.84 211.32 256.35 217.94 259.73 242.51 247.91 230.16 234.53"/><polygon class="s" points="211.32 244.84 204.76 242.27 210.4 270.98 217.94 259.73 211.32 244.84"/><polygon class="cc" points="343.36 210.73 362.13 210.54 365.95 217.54 361.57 224.71 341.03 228.29 343.36 210.73"/><polygon class="s" points="383.26 176.15 370.29 239.4 395.84 246.98 426.85 244.84 442.77 198.84 421.45 171.17 383.26 176.15"/><polygon class="au" points="421.45 171.17 401.09 242.4 400.52 246.6 402.01 248.81 430.5 257.26 451.72 197.64 421.45 171.17"/><polygon class="bu" points="410.06 199.63 416.1 201.42 411.06 222.08 406.95 221.77 403.37 219.83 410.06 199.63"/><polygon class="cj" points="403.37 219.83 406.26 224.32 411.06 222.08 403.37 219.83"/><polygon class="cj" points="394.08 223 404.7 229.77 415.9 229.83 416.2 233.34 403.68 233.34 392.12 225.9 394.08 223"/><polygon class="as" points="394.87 202.52 398.6 205.78 403.09 205.24 403.29 207.59 397.62 208.47 393.41 204.73 394.87 202.52"/><polygon class="as" points="418.53 209.06 422.26 212.32 426.75 211.78 426.94 214.14 421.28 215.01 417.06 211.28 418.53 209.06"/><polygon class="at" points="416.1 201.42 419.7 197.97 430.25 202.42 430.71 205.87 416.1 201.42"/><polygon class="at" points="410.06 199.63 408.46 195 397.08 193.73 394.99 196.52 410.06 199.63"/><polygon class="ch" points="400.52 190.78 398.58 186.48 389.26 183.12 381.19 211.22 387.95 214.9 381.34 233.9 390.87 238.86 393.56 237.43 386.11 232.49 393.69 212.5 385.8 208.69 391.91 188.09 400.52 190.78"/><polygon class="ch" points="429.94 199.47 433.88 196.87 443.55 199 435.38 227.08 427.7 226.58 423.16 246.17 412.45 245.29 410.94 242.64 419.87 242.44 424.13 221.49 432.83 222.48 438.66 201.79 429.94 199.47"/><polygon class="ch" points="414.73 194.69 412.12 189.98 416.81 187.42 418.89 191.87 414.73 194.69"/><polygon class="ch" points="395.84 246.98 398.35 241.62 403.29 243.02 402.01 248.81 395.84 246.98"/><polygon class="by" points="367.74 209.07 377.73 203.15 386.42 206.6 387.95 214.9 384.33 215.95 381.19 211.22 375.1 215.95 367.74 215.01 367.74 209.07"/><polygon class="s" points="362.13 210.54 369.73 202.42 367.54 232 361.57 224.71 362.13 210.54"/><polygon class="cb" points="648.51 160 642.33 176.15 634.24 172.14 643.61 157.84 648.51 160"/><polygon class="ck" points="617.08 185.3 622.4 168.99 614.9 159.18 612.49 176.15 617.08 185.3"/><polygon class="cl" points="620.04 107.17 611.5 105.97 609.96 150.28 607.96 176.6 614 179.73 615.6 176.15 619.01 117.53 621.37 111.74 620.04 107.17"/><polygon class="cm" points="602.06 165.2 609.96 150.28 616.83 153.3 610.64 172.14 605.45 172.14 602.06 165.2"/><polygon class="cn" points="642.33 194.1 611.5 210.93 623.93 226.79 637.83 224.71 645.84 206.18 642.33 194.1"/><polygon class="cn" points="710.71 195.09 726.13 240.1 717.88 244.91 709.67 243.83 698.91 231.01 699.91 212.97 710.71 195.09"/><polygon class="cm" points="692.21 350.04 690.92 352.59 691.82 355.63 688.63 357.1 684.41 365.45 696.75 368.9 709.08 365.45 707.51 361.61 704.95 359.48 705.72 357.24 702.16 348.54 698.45 345.8 692.21 350.04"/><polygon class="ck" points="704.95 319.83 702.95 340.68 701.76 342.93 702.56 344.59 702.16 348.54 692.21 350.04 692.94 345.8 690.44 343.6 682.93 315.19 704.95 319.83"/><polygon class="cm" points="639.28 348.93 634.71 351.81 635.21 354.44 631.99 353.53 616.59 363.26 629.59 365.45 643.61 361.07 649.63 358.29 650.62 350.92 646.44 347.5 639.28 348.93"/><polygon class="ck" points="642.33 330.31 640.71 340.68 641.53 344.49 640.03 344.57 639.28 348.93 650.62 350.92 650.62 347.5 653.37 345.8 668.37 316.85 642.33 330.31"/><polygon class="l" points="656.39 258.54 681.86 273.13 708.38 278.44 692.48 250.58 681.86 247.13 656.39 258.54"/><polygon class="k" points="656.39 258.54 642.33 330.31 700.97 312.87 708.38 278.44 656.39 258.54"/><polygon class="ck" points="651.15 189.48 643.61 197.34 644.85 217.07 693.61 221.72 700.97 191.59 696.59 190.01 667.82 187.49 651.15 189.48"/><polygon class="aa" points="642.33 176.15 663.16 177.15 685.91 178.69 712.2 180.59 680.34 199.83 671.07 189.68 651.15 189.48 642.33 176.15"/><polygon class="co" points="686.84 183.71 712.2 180.59 691.79 175.84 659.15 173.68 642.33 176.15 662.96 182.72 686.84 183.71"/><polygon class="at" points="687.63 47.1 712.2 63.76 706.88 74.26 684.86 72.27 676.16 61.72 687.63 47.1"/><polygon class="cb" points="670.7 63.42 667.82 55.95 687.63 47.1 680.98 60.37 677.68 62.58 670.7 63.42"/><polygon class="w" points="670.7 63.42 680.98 60.37 706.88 74.26 685.58 75.93 670.7 63.42"/><polygon class="ck" points="627.93 97.94 624.08 160.89 655 163.81 668.33 179.13 674.5 181.32 683.46 175.55 706.74 134.96 696.19 88.79 659.77 80.23 636.29 84.01 627.93 97.94"/><polygon class="cn" points="655 163.81 680.11 167.99 691.22 86 696.19 88.79 719.28 132.17 691.79 175.84 685.58 180.59 673.47 183.18 664.88 180.59 659.15 173.68 655 163.81"/><polygon class="bj" points="655 163.81 687.14 167 673.47 174.63 669.25 176.15 659.15 173.68 655 163.81"/><polygon class="cn" points="636.76 102.12 633.04 108.75 640.34 121.75 655.4 136.15 667.4 129.85 669.79 125.4 679.74 112.2 676.96 105.97 671.07 102.12 665.45 105.3 658.65 115.39 651.75 114.59 647.9 102.78 642.46 98.4 636.76 102.12"/><polygon class="cm" points="651.75 114.59 647.63 135.29 651.52 137.74 655.4 136.15 658.65 115.39 651.75 114.59"/><polygon class="bj" points="647.63 135.29 651.35 139.53 655.4 136.15 647.63 135.29"/><polygon class="bj" points="710.71 145.79 700.97 142.45 701.76 160 710.71 145.79"/><polygon class="bj" points="704.12 139.53 707.47 131.97 713.44 134.09 704.12 139.53"/><circle class="as" cx="637.83" cy="116.95" r="2.35"/><circle class="as" cx="670.17" cy="120.56" r="2.35"/><polygon class="at" points="636.76 102.12 636.76 99.47 643.12 96.68 649.49 100.39 647.9 102.78 643.12 99.73 636.76 102.12"/><polygon class="at" points="665.45 105.3 664.88 102.78 671.78 99.73 678.68 103.58 676.96 105.97 671.07 102.85 665.45 105.3"/><polygon class="cb" points="680.34 88.44 687.4 114.16 693.41 121.09 695.65 121.09 700.97 106.8 696.19 88.79 680.34 88.44"/><polygon class="at" points="692.26 117.28 678.68 137.41 683.95 141.17 687.14 140.46 696.59 124.21 695.65 121.09 692.26 117.28"/><polygon class="cb" points="678.68 137.41 690.97 157.24 692.48 149.26 687.14 140.46 678.68 137.41"/><polygon class="at" points="692.48 149.26 680.34 166.32 688.76 174.16 694.47 152.53 692.48 149.26"/><polygon class="at" points="636.29 84.01 658.65 93.76 669.33 88.44 673.37 91.81 696.19 88.79 695.99 101.12 706.74 121.62 719.08 121.42 718.75 103.84 710.71 89.65 706.88 74.26 692.26 69.88 682.26 71.87 677.78 65.55 670.7 63.42 649.49 69.48 636.29 84.01"/><polygon class="cb" points="670.7 63.42 646.46 88.44 636.29 84.01 647.63 68.69 670.7 63.42"/><polygon class="cb" points="658.65 93.76 677.78 65.55 692.26 69.88 673.37 91.81 658.65 93.76"/><polygon class="az" points="696.19 88.79 706.88 74.26 718.75 103.84 696.19 88.79"/><polygon class="az" points="695.99 101.12 719.08 121.42 719.28 132.17 707.34 125.2 695.4 136.15 695.99 101.12"/><polygon class="bj" points="642.33 145.57 647.24 153 653.8 153.53 660.4 147.05 649.43 145.57 642.33 145.57"/><polygon class="bk" points="643.61 145.04 644.66 148.44 656.92 149.55 659.5 146.93 643.61 145.04"/><polygon class="k" points="640.6 145.04 645.58 153.93 654.72 154.63 661.7 146.9 657.98 146.5 653.82 151.78 646.91 151.22 643.99 144.64 640.6 145.04"/><polygon class="cp" points="640.6 145.04 651.22 141.99 661.7 146.9 650.75 147.63 640.6 145.04"/><path class="s" d="M641.4,104.94,620,107.17l-1,10.36,18.82,10.53,16.57-9.42,1.46-1.36L655,115Zm-3.57,16.68-10.68-5.91.16-4.07,12.1-2.49,8.22,7.8Z"/><path class="br" d="M671.78,108.09,655,115l-.6,3.67,13,11.21L695.57,126l.14-8.39Zm13.47,14.83-15.46,2.48L661,117.28l10.29-5.48L685.91,119Z"/><polygon class="n" points="659.15 173.68 691.79 175.84 686.84 183.71 673.51 187.49 662.96 182.72 659.15 173.68"/><polygon class="cq" points="662.96 182.72 651.15 189.48 680.34 199.83 686.84 183.71 662.96 182.72"/><polygon class="k" points="673.47 174.63 669 178.24 673.47 183.18 678.68 178.2 673.47 174.63"/><polygon class="l" points="651.15 189.48 642.33 194.1 637.83 224.71 659.5 247.13 698.91 231.01 710.71 195.09 700.97 191.59 688.83 215.01 647.63 208.99 651.15 189.48"/><polygon class="k" points="637.83 224.71 698.91 231.01 693.92 246.2 687.63 249.19 658.65 253.12 648.51 244.17 637.83 224.71"/><polygon class="co" points="693.92 246.2 673.71 245.3 669.86 247.13 664.25 244.87 648.51 244.17 656.39 258.54 668.37 255.9 671.21 252.47 675.47 254.33 692.48 250.58 693.92 246.2"/><polygon class="v" points="664.25 244.87 668.37 255.9 675.47 254.33 673.71 245.3 664.25 244.87"/><polygon class="cr" points="708.38 278.44 642.33 330.31 704.95 319.83 708.38 278.44"/><polygon class="ci" points="650.62 350.92 640.03 344.57 640.71 340.68 653.37 345.8 650.62 350.92"/><polygon class="ci" points="634.71 351.81 643.61 361.07 638.08 362.66 631.99 353.53 634.71 351.81"/><polygon class="at" points="616.59 363.26 624.68 369.16 637.02 369.16 643.61 361.07 646.04 369.16 649.09 369.16 653.82 359.75 650.62 350.92 643.61 361.07 616.59 363.26"/><polygon class="ci" points="692.21 350.04 702.56 344.59 702.95 340.68 690.44 343.6 692.21 350.04"/><polygon class="ci" points="690.92 352.59 705.72 357.24 707.51 361.61 688.63 357.1 690.92 352.59"/><polygon class="at" points="684.41 365.45 689.29 372.35 704.95 372.35 709.08 365.45 684.41 365.45"/><polygon class="ck" points="709.67 243.83 708.49 254.66 714.84 261.28 720.33 257.43 726.13 240.1 709.67 243.83"/><polygon class="cn" points="707.51 263.67 697.99 273.69 699.77 277.91 705.73 277.91 707.51 263.67"/><polygon class="cm" points="707.51 263.67 702.36 275.07 719.04 280.35 717.29 266.51 713.17 262.78 707.51 263.67"/><polygon class="co" points="717.29 266.51 707.51 263.67 708.49 254.66 720.33 257.43 719.27 260.58 717.95 260.66 718.53 262.78 717.29 266.51"/><polygon class="p" points="719.27 260.58 708.07 258.54 718.53 262.78 719.27 260.58"/><polygon class="ad" points="686.34 270 682.38 271.41 674.27 295.95 678.91 301.58 687.7 280.96 686.34 270"/><polygon class="af" points="686.34 270 726.84 282.82 719.27 312.54 678.91 301.58 686.34 270"/><polygon class="ae" points="682.93 284.51 702.9 289.99 704.95 292.37 708.07 291.41 723.57 295.66 707.51 297.64 704.95 295.25 700.57 295.66 682.93 284.51"/><polygon class="cs" points="702.88 290.09 700.57 295.66 707.51 297.64 708.07 291.41 702.88 290.09"/><polygon class="ck" points="702.36 275.07 704.32 288.39 714.3 287.26 719.04 280.35 702.36 275.07"/><polygon class="ck" points="623.93 226.79 618.69 195.09 613.97 190.25 606.44 199.02 604.54 222.72 623.93 226.79"/><polygon class="cn" points="617.08 185.3 615.6 176.15 602.06 165.2 598.83 171.33 607.33 187.99 613.61 187.99 617.08 185.3"/><polygon class="co" points="607.33 187.99 617.08 185.3 617.52 187.99 616.56 190.11 618.06 191.27 618.69 195.09 606.44 199.02 607.33 187.99"/><polygon class="p" points="606.92 193.06 617.52 187.99 618.06 191.27 606.92 193.06"/></svg>