<svg xmlns="http://www.w3.org/2000/svg" viewBox="0 0 800 400"><defs><style>.a{fill:#dddfe2;}.a,.aa,.ab,.ac,.ad,.ae,.af,.ag,.ah,.aj,.ak,.al,.am,.an,.ao,.ap,.aq,.ar,.as,.at,.au,.av,.aw,.ax,.ay,.az,.b,.ba,.bb,.bc,.bd,.be,.bf,.bg,.bh,.bi,.bj,.bk,.bl,.bm,.bn,.bo,.bp,.bq,.br,.bs,.bt,.bv,.c,.e,.f,.g,.h,.i,.j,.k,.l,.m,.n,.o,.p,.q,.r,.s,.t,.u,.v,.w,.x,.y,.z{fill-rule:evenodd;}.b{fill:#1d2432;opacity:0.1;}.c{fill:#cccfd4;}.as,.d{fill:#fff;}.e{fill:#abafb8;}.f{fill:#787f8d;}.g{fill:#f6f6f7;}.h{fill:#33a474;}.i{fill:#2b8b62;}.j{fill:#5bb68f;}.k{fill:#a0cf7e;}.l{fill:#86b264;}.m{fill:#ab90b8;}.n{fill:#8e699f;}.o{fill:#734d61;}.p{fill:#96637c;}.q{fill:#b3889d;}.r{fill:#9471a4;}.s{fill:#815c92;}.t{fill:#735283;}.bu,.u{fill:#b68b2e;}.v{fill:#bbbfc6;}.w{fill:#454d5d;}.x{fill:#cc9c34;}.y{fill:#9f7928;}.z{fill:#e6b64e;}.aa{fill:#ccae2d;}.ab{fill:#f4d75c;}.ac{fill:#3d4554;}.ad{fill:#51596a;}.ae{fill:#dfbda5;}.af{fill:#c3987b;}.ag{fill:#8b6651;}.ah{fill:#e8cab6;}.ai,.bi{fill:#232a38;}.aj{fill:#4b5464;}.ak{fill:#2e3544;}.al{fill:#576071;}.am{fill:#71561c;}.an{fill:#aa822b;}.ao{fill:#68707f;}.ap{fill:#9a9fa9;}.aq{fill:#5f6878;}.ar{fill:#eeeff1;}.at{fill:#99d1b9;}.au{fill:#f9fafa;}.av{fill:#89909b;}.aw{fill:#8dc1d2;}.ax{fill:#3e90aa;}.ay{fill:#55a2bb;}.az{fill:#e5b244;}.ba{fill:#fff7ae;}.bb{fill:#94d5d5;}.bc{fill:#4fa9aa;}.bd{fill:#359496;}.be{fill:#1e7678;}.bf{fill:#5e436b;}.bg{fill:#6c4d7b;}.bh{fill:#513a5c;}.bj{fill:#404857;}.bk{fill:#72cbcc;}.bl{fill:#88619a;}.bm{fill:#9f80ae;}.bn{fill:#e6e97c;}.bo{fill:#709d52;}.bp{fill:#3da87b;}.bq{fill:#70bf9d;}.br{fill:#28835c;}.bs{fill:#e4ae3a;}.bt{fill:#947125;}.bv{fill:#237250;}</style></defs><polygon class="a" points="4.38 340.41 348.05 299.03 795.81 341.21 743.54 372.51 378.32 394.57 4.38 340.41"/><polygon class="b" points="173.88 336.8 128.41 344.14 204.03 358.71 268.73 347.88 275.72 339.15 237.03 335.41 173.88 336.8"/><polygon class="b" points="286.69 351.43 255.16 360.89 411.3 383.38 478.32 349.43 454.4 346.77 319.16 336.35 286.69 351.43"/><polygon class="b" points="628.02 360.31 641.29 353.19 662.46 356.12 682.64 347.25 687.01 336.35 619.13 325.98 526.96 331.3 523.8 350.43 628.02 360.31"/><polygon class="c" points="18.62 111.47 50.44 23 230.9 7.16 277.43 90.84 183.72 124.47 18.62 111.47"/><circle class="d" cx="87.21" cy="52.49" r="19.05"/><polygon class="e" points="82.69 62.77 46.57 85.54 18.62 111.47 23.25 130.82 32.34 135.98 29.55 157.14 40.38 202.41 113.18 226.09 210.51 229.02 227.47 223.38 230.23 219.14 232.95 221.55 246.03 217.2 267.96 96.04 216.76 45.06 186.36 58.77 153.94 90.39 129.7 85.44 82.69 62.77"/><polygon class="f" points="98.67 74.44 97.05 98.02 84.1 137.56 111.4 151.96 153.94 90.39 129.7 85.44 98.67 74.44"/><polygon class="f" points="230.9 58.07 221.85 76.41 262.3 111.47 219.31 184.78 234.15 199.51 246.03 217.2 251.92 193.5 250.86 181.2 257.01 173.03 277.43 90.84 230.9 58.07"/><polygon class="g" points="80.74 53.85 46.57 85.54 56.66 92.28 71.1 78.5 77.17 82.83 65.98 114.82 78.64 119.14 86.08 96.31 97.05 98.02 97.05 74.28 80.74 53.85"/><polygon class="g" points="29.55 157.14 53.53 118.71 44.78 114.82 23.25 130.82 29.55 157.14"/><polygon class="g" points="210.51 32.62 225.25 69.95 262.3 111.47 238.55 151.96 216.48 98.02 207.14 100.5 197 125.11 186.36 120.92 204.03 72.78 162.46 96.63 153.94 90.39 210.51 32.62"/><polygon class="a" points="80.74 53.85 129.7 85.44 143.34 92.75 134.87 104.53 113.18 107.13 107.87 106.33 97.05 98.02 80.74 53.85"/><polygon class="a" points="210.51 32.62 277.43 90.84 252.12 82.83 262.3 111.47 221.85 76.41 210.51 32.62"/><polygon class="h" points="89.55 214.41 99.28 202.71 103.73 202.97 105.22 208.59 102.99 217.2 89.55 214.41"/><polygon class="i" points="103.73 202.97 107.13 202.97 115.98 214.31 102.99 217.2 103.73 202.97"/><polygon class="j" points="101.08 191.4 93.81 202.41 103.54 206.79 102.99 193.63 101.08 191.4"/><polygon class="h" points="102.99 193.63 103.54 206.79 112.5 202.97 104.85 191.4 102.99 193.63"/><polygon class="h" points="102.99 180.9 97.05 192.15 103.03 194.48 102.99 180.9"/><polygon class="i" points="102.99 180.9 109.25 191.4 103.03 194.48 102.99 180.9"/><polygon class="h" points="53.53 206.25 68.47 183.45 73.56 186.04 76.22 195.89 68.69 209.49 53.53 206.25"/><polygon class="i" points="73.56 186.04 79.86 184.78 91.03 211.8 68.69 209.49 73.56 186.04"/><polygon class="j" points="71.8 170.65 58.64 186.63 72.73 190.02 77.17 178.05 74.77 171.1 71.8 170.65"/><polygon class="h" points="74.77 171.1 77.59 170.08 88.74 186.91 72.73 190.02 74.77 171.1"/><polygon class="h" points="74.77 151.96 65.98 170.08 74.6 172.63 76.22 163.29 74.77 151.96"/><polygon class="i" points="74.77 151.96 82.69 170.08 74.6 172.63 74.77 151.96"/><polygon class="k" points="99.98 218.77 120.56 214.99 156.94 220.66 188.76 230.32 171.38 243.61 159.17 248.16 157.91 247.09 155.82 249.41 99.98 218.77"/><polygon class="l" points="40.38 202.41 120.56 214.99 144.21 241.86 143.84 244.54 40.38 202.41"/><polygon class="l" points="156.94 220.66 171.05 234.62 174.83 238.25 190.74 236.39 194.27 235.07 196.24 232.35 198.16 233.62 210.51 229.02 156.94 220.66"/><polygon class="m" points="113.18 98.59 109.1 104.53 109.28 106.16 107.87 106.33 103.26 113.02 115.64 125.11 123.42 111.85 113.18 98.59"/><polygon class="n" points="109.1 104.53 116.06 111.85 112.88 117.12 111.04 115.82 113.34 112.24 107.87 106.33 109.1 104.53"/><polygon class="o" points="120.73 188.75 146.33 190.02 151.91 184.64 127.03 180.27 120.73 188.75"/><polygon class="p" points="123.84 122.46 131.74 123.36 152.41 141.87 149.66 183.66 135.72 184.11 130.49 183.61 123.42 139.96 123.84 122.46"/><polygon class="q" points="124.24 122.81 115.64 125.11 111.4 151.96 117.41 161.81 116.25 171.1 120.73 188.75 130.49 183.61 124.24 122.81"/><polygon class="r" points="111.4 151.96 120.94 149.88 123.42 167.11 116.25 171.1 113.99 162.19 114.55 160.04 113.18 159.01 111.4 151.96"/><polygon class="s" points="120.94 149.88 113.18 159.01 113.99 162.19 120.94 149.88"/><polygon class="t" points="149.66 104.53 120.94 113.02 115.64 125.11 131.74 123.36 148.98 124.47 149.66 104.53"/><polygon class="n" points="120.94 113.02 113.18 98.59 134.87 96.04 148.42 102.08 143.34 110.79 120.94 113.02"/><polygon class="u" points="174.83 145.79 189.26 150.02 189.99 153.78 187.27 158.12 170.16 158.13 174.83 145.79"/><polygon class="v" points="198.73 149.4 205.79 148.99 209.33 162.19 204.3 167.11 199.5 163.65 200.99 161.81 204.81 163.24 203.47 155.23 198.73 149.4"/><polygon class="w" points="190.24 151.45 195.97 147.88 198.16 154.53 195.19 162.19 187.27 158.12 188.38 153.61 190.24 151.45"/><polygon class="x" points="171.05 178.05 184.09 208.59 176.77 213.25 170.14 212.72 157.36 195.34 159.59 184.72 171.05 178.05"/><polygon class="x" points="157.91 195.89 155.64 216.49 151.1 232.7 145.48 235.25 141.2 220.01 135.72 184.11 140.59 175.22 152.13 182.01 157.91 195.89"/><polygon class="y" points="140.59 175.22 157.91 195.89 171.05 178.05 157.36 173.38 140.59 175.22"/><polygon class="y" points="180.74 141.34 171.05 178.05 143.89 168.72 137.56 145.79 160.86 139.22 180.74 141.34"/><polygon class="z" points="169.03 122.46 180.74 141.34 137.56 145.79 138.19 124.47 142.77 120.92 169.03 122.46"/><polygon class="aa" points="167.55 142.7 161.73 174.85 158.42 173.71 163.6 143.11 164.93 141.87 167.55 142.7"/><polygon class="ab" points="161.86 129.2 167.55 142.7 163.6 143.11 157.36 124.47 161.86 129.2"/><polygon class="ac" points="127.03 103.66 132.99 118.71 139.88 104.66 127.03 103.66"/><polygon class="ad" points="134.87 96.04 127.03 103.66 140.77 108.11 142.34 101.74 134.87 96.04"/><polygon class="ae" points="186.36 58.77 189.26 105.24 171.05 107.13 159.39 120.42 147.79 112.49 134.2 86.57 150.07 62.44 171.02 53.85 186.36 58.77"/><polygon class="af" points="150.07 62.44 151.91 75.43 156.74 109.52 164.87 115.82 159.7 123.07 144.82 116.42 137.76 101.94 136.78 97.83 134.87 96.04 129.7 85.44 143.9 64.97 150.07 62.44"/><polygon class="af" points="182.14 74.89 172.37 88.01 162.89 75.78 167.21 75.54 171.05 75.43 171.56 77.35 172.79 78.71 174.24 77.22 174.78 75.43 177.92 74.11 182.14 74.89"/><polygon class="ag" points="134.87 96.04 140.26 94.1 137.76 101.94 134.87 96.04"/><polygon class="ag" points="138.7 90.84 137.15 85.54 133.26 86.77 138.7 90.84"/><polygon class="ah" points="172.37 88.01 174.49 88.44 176.6 87.68 174.24 77.22 171.56 77.35 172.37 88.01"/><polygon class="ag" points="176.6 87.68 174.51 90.39 172.37 88.01 176.6 87.68"/><circle class="ai" cx="179.36" cy="77.85" r="1.44"/><circle class="ai" cx="166.31" cy="79.46" r="1.44"/><polygon class="aj" points="186.36 58.77 169.53 45.06 146.2 46.68 129.8 61.7 131.88 80.48 140.23 77.16 143.97 80.15 151.91 75.43 186.36 58.77"/><polygon class="ac" points="143.15 69.99 129.8 61.7 129.7 85.44 139.39 78.84 144.57 80.68 143.15 69.99"/><polygon class="ak" points="138.36 67.02 129.7 85.44 138.27 82.24 142.65 89.99 151.91 75.43 147.11 67.79 138.36 67.02"/><polygon class="al" points="151.91 75.43 169.53 45.06 138.36 67.02 151.91 75.43"/><polygon class="aj" points="171.05 75.43 170.57 73.1 163.16 74.2 162.89 75.78 171.05 75.43"/><polygon class="ag" points="171.05 107.13 149.66 108.56 164.87 115.82 171.05 107.13"/><polygon class="aj" points="174.78 75.43 175.34 72.78 181.85 73.57 182.14 74.89 174.78 75.43"/><polygon class="u" points="164.93 94.83 173.84 99.33 180.74 93.92 173.74 95.41 164.93 94.83"/><polygon class="am" points="164.93 94.83 169.71 94.08 174.32 92.28 177.24 93.34 180.74 93.92 173.79 96.31 164.93 94.83"/><polygon class="f" points="144.82 116.42 162.13 117.37 169.03 122.46 161.86 129.2 142.77 120.92 144.82 116.42"/><polygon class="ad" points="164.87 115.82 144.82 116.42 169.03 122.46 164.87 115.82"/><polygon class="w" points="143.89 168.72 172.62 171.76 171.05 178.05 140.59 175.22 143.89 168.72"/><polygon class="an" points="155.64 216.49 141.2 220.01 142.88 232.19 149.83 235.25 154.12 230.32 155.64 216.49"/><polygon class="ao" points="153.26 239.88 155.82 249.41 143.84 244.54 144.21 241.86 148.27 239.88 153.26 239.88"/><polygon class="ad" points="154.12 230.32 148.98 231.18 148.01 231.97 147.19 231.48 142.88 232.19 144.21 241.86 153.26 239.88 154.12 230.32"/><polygon class="aa" points="148.98 231.18 149.16 237.21 147.46 237.5 147.19 231.48 148.98 231.18"/><polygon class="an" points="184.09 208.59 181.38 221.6 176.66 228.11 170.68 225.73 170.14 212.72 184.09 208.59"/><polygon class="ao" points="171.05 234.62 171.38 243.61 190.74 236.39 179.15 232.29 174.75 231.6 171.05 234.62"/><polygon class="ad" points="171.05 234.62 170.68 225.73 179.16 222.46 179.79 229.22 179.15 232.29 171.05 234.62"/><polygon class="aa" points="181.38 221.6 179.16 222.46 178.2 228.85 179.79 229.22 181.38 221.6"/><polygon class="f" points="199.5 163.65 198.16 233.62 194.27 235.07 195.19 162.19 196.71 160.04 199.74 159.58 199.5 163.65"/><polygon class="ap" points="199.5 163.65 195.19 162.19 195.4 158.36 198.48 159.33 199.5 160.04 199.5 163.65"/><polygon class="aq" points="200.99 150.64 204.81 151.41 204.37 160.62 199.5 163.65 198.48 159.33 198.48 156.29 200.99 150.64"/><polygon class="aq" points="196.32 153.61 188.38 153.61 189.26 150.02 195.97 147.88 197 151.41 196.32 153.61"/><polygon class="f" points="195.97 147.88 200.99 150.64 198.48 159.33 195.4 158.36 195.97 147.88"/><polygon class="n" points="142.77 120.92 148.42 144.67 143.06 145.23 138.27 131.33 138.26 121.89 142.77 120.92"/><polygon class="x" points="138.26 121.89 131.74 123.36 131.41 160.04 142.77 153.89 143.83 149.01 138.26 121.89"/><polygon class="u" points="143.83 149.01 153.65 150.02 156.82 151.87 155.82 157.64 131.41 160.04 143.83 149.01"/><polygon class="f" points="162.46 161.81 163.67 164.14 159.17 248.16 155.82 249.41 159.15 164.14 162.46 161.81"/><polygon class="aq" points="156.82 150.35 162.46 149.88 159.15 164.14 154.74 157.75 156.82 150.35"/><polygon class="w" points="162.46 149.88 168.67 154.03 163.67 164.14 159.15 164.14 162.46 149.88"/><polygon class="v" points="156.82 150.35 153.93 161.95 159.15 164.14 159.69 166.3 159 168 149.72 162.59 153.65 150.02 156.82 150.35"/><polygon class="ap" points="159 168 163.5 167.36 163.67 164.14 159.15 164.14 159 168"/><polygon class="ao" points="227.51 223.48 228.92 192.57 234.3 196.67 233.02 221.77 227.51 223.48"/><polygon class="h" points="202.9 187.34 234.15 199.51 244.38 157.14 228.78 155.03 202.9 187.34"/><polygon class="i" points="234.15 199.51 251.92 193.5 257.01 173.03 246.46 154.53 237.45 156.51 234.15 199.51"/><polygon class="j" points="226.52 127.23 214 154.53 237.11 161 240.31 137.84 233.31 128.67 226.52 127.23"/><polygon class="h" points="233.31 128.67 238.33 126.17 255.16 151.96 237.11 161 233.31 128.67"/><polygon class="h" points="232.46 98.02 218.03 128.67 233.74 132.32 237.12 118.71 232.46 98.02"/><polygon class="i" points="232.46 98.02 246.03 127.23 233.74 132.32 232.46 98.02"/><polygon class="c" points="286.06 144.08 279.83 154.53 294.83 166.07 297.65 149.01 286.06 144.08"/><polygon class="a" points="631.3 4.21 713.87 33.9 731.95 45.37 756.2 49.13 781.45 58.21 770.49 116.49 721.77 199.74 616.62 203.91 631.3 4.21"/><polygon class="ar" points="713.28 37.62 688.48 41.34 689.06 54.9 689.88 89.81 710.85 90.95 757.41 93.99 756.2 49.13 737.69 42.47 713.28 37.62"/><polygon class="j" points="688.11 32.78 713.87 33.9 737.69 42.47 688.48 41.34 688.11 32.78"/><polygon class="l" points="694.69 46.85 712.44 47.35 712.15 50.25 694.76 49.96 694.69 46.85"/><polygon class="as" points="725.54 73.19 725.46 67.86 718.69 67.64 718.8 72.9 725.54 73.19"/><polygon class="as" points="734.09 80.17 734.01 75.05 726.96 74.75 727.07 79.83 734.09 80.17"/><polygon class="at" points="726.64 60.21 733.78 60.4 733.7 55.32 726.53 55.13 726.64 60.21"/><polygon class="as" points="718.55 61.37 718.65 66.04 725.43 66.27 725.36 61.57 718.55 61.37"/><polygon class="as" points="725.64 79.76 725.56 74.68 718.84 74.39 718.95 79.44 725.64 79.76"/><polygon class="at" points="718.52 60.01 725.34 60.18 725.26 55.09 718.41 54.91 718.52 60.01"/><polygon class="as" points="710.45 61.14 710.55 65.77 717.32 66 717.24 61.34 710.45 61.14"/><polygon class="as" points="717.42 72.83 717.34 67.59 710.58 67.37 710.7 72.54 717.42 72.83"/><polygon class="as" points="735.12 61.86 735.22 66.59 742.45 66.83 742.37 62.07 735.12 61.86"/><polygon class="as" points="695.01 60.69 695.05 65.26 701.34 65.47 701.27 60.87 695.01 60.69"/><polygon class="as" points="733.99 73.56 733.9 68.14 726.81 67.91 726.92 73.25 733.99 73.56"/><polygon class="as" points="701.46 73.63 695.1 73.35 695.14 78.29 701.54 78.6 701.46 73.63"/><polygon class="as" points="701.44 72.14 701.36 67.07 695.06 66.86 695.09 71.86 701.44 72.14"/><polygon class="as" points="742.56 73.94 742.47 68.42 735.25 68.18 735.37 73.62 742.56 73.94"/><polygon class="at" points="735.09 60.43 742.35 60.61 742.27 55.55 734.98 55.36 735.09 60.43"/><polygon class="as" points="742.66 80.58 742.58 75.43 735.4 75.11 735.51 80.24 742.66 80.58"/><polygon class="as" points="717.52 79.37 717.44 74.33 710.73 74.03 710.84 79.05 717.52 79.37"/><polygon class="as" points="726.67 61.61 726.77 66.31 733.88 66.55 733.8 61.82 726.67 61.61"/><polygon class="at" points="743.65 60.65 750.12 60.81 750.02 55.76 743.54 55.59 743.65 60.65"/><polygon class="as" points="743.79 66.88 750.25 67.09 750.15 62.29 743.69 62.1 743.79 66.88"/><polygon class="as" points="750.42 75.77 743.98 75.49 744.09 80.65 750.52 80.96 750.42 75.77"/><polygon class="as" points="743.94 74 750.39 74.28 750.28 68.68 743.82 68.47 743.94 74"/><polygon class="as" points="742.68 81.93 735.54 81.59 735.66 86.78 742.76 87.16 742.68 81.93"/><polygon class="as" points="744.12 82 744.23 87.24 750.66 87.58 750.55 82.31 744.12 82"/><polygon class="as" points="701.56 79.95 695.15 79.64 695.18 84.61 701.64 84.96 701.56 79.95"/><polygon class="at" points="701.25 59.56 701.17 54.45 694.97 54.28 695.01 59.4 701.25 59.56"/><polygon class="at" points="702.55 59.6 709.12 59.76 709.04 54.66 702.44 54.48 702.55 59.6"/><polygon class="at" points="710.42 59.8 717.22 59.97 717.14 54.88 710.31 54.69 710.42 59.8"/><polygon class="as" points="734.11 81.52 727.1 81.18 727.21 86.33 734.19 86.7 734.11 81.52"/><polygon class="as" points="709.41 78.98 709.34 73.97 702.86 73.69 702.97 78.67 709.41 78.98"/><polygon class="as" points="709.31 72.48 709.23 67.33 702.72 67.11 702.83 72.2 709.31 72.48"/><polygon class="as" points="702.58 60.91 702.68 65.51 709.21 65.73 709.14 61.1 702.58 60.91"/><polygon class="as" points="709.43 80.33 703 80.02 703.11 85.04 709.51 85.38 709.43 80.33"/><polygon class="as" points="725.66 81.11 718.97 80.79 719.09 85.89 725.74 86.25 725.66 81.11"/><polygon class="as" points="717.54 80.72 710.87 80.4 710.98 85.46 717.62 85.81 717.54 80.72"/><polygon class="ar" points="500.86 32.22 602.83 19.2 603.54 79.03 498.46 83.72 500.86 32.22"/><polygon class="a" points="577.69 38.99 560.63 37.2 560.01 61.82 578.93 60.11 577.69 38.99"/><polygon class="v" points="575.39 54.9 575.72 39.68 578.87 37.94 586.33 37.94 587.67 62.2 575.39 54.9"/><polygon class="au" points="586.33 37.94 574.52 35.29 560.47 37.2 575.72 39.68 586.33 37.94"/><polygon class="a" points="526.11 42.19 500.15 41.26 498.46 160.49 530.14 169.12 526.11 42.19"/><polygon class="v" points="549.23 40.42 530.14 39.32 520.66 44.84 528.84 156.62 556.47 151.2 550.08 52.69 549.23 40.42"/><polygon class="au" points="549.23 40.42 531.67 35.29 501.19 41.26 520.66 44.84 549.23 40.42"/><polygon class="ap" points="514.01 51.1 516.67 51.78 517.09 57.51 514.6 56.82 514.01 51.1"/><polygon class="ap" points="505.95 49.13 508.55 49.88 508.98 55.71 506.32 54.97 505.95 49.13"/><polygon class="ap" points="506.91 61.38 509.24 62.02 509.67 67.22 507.12 66.37 506.91 61.38"/><polygon class="ap" points="508.39 103.39 511.57 104.45 512 110.6 508.92 109.43 508.39 103.39"/><polygon class="ap" points="509.24 116.12 512.32 117.28 512.74 123.22 509.67 121.84 509.24 116.12"/><polygon class="ap" points="517.62 119.62 520.7 120.68 521.12 126.19 517.94 124.92 517.62 119.62"/><polygon class="a" points="563.37 67.29 560.11 57.78 546.94 57.11 542.55 157.66 570.44 159.95 563.37 67.29"/><polygon class="au" points="594.22 62.81 575.39 54.9 546.94 57.11 563.37 67.29 578.93 67.29 594.22 62.81"/><polygon class="v" points="598.45 62.2 568.64 66.49 563.37 67.29 566.48 158.33 603.54 152.99 598.45 62.2"/><polygon class="av" points="575.32 75.14 578.58 74.71 578.93 79.81 575.61 80.23 575.32 75.14"/><polygon class="av" points="585.22 73.86 588.26 73.44 588.55 78.53 585.43 79.03 585.22 73.86"/><polygon class="av" points="575.96 90.41 579.14 89.99 579.42 94.87 576.24 95.29 575.96 90.41"/><polygon class="av" points="585.86 88.69 588.8 88.36 589.12 93.58 586.1 93.99 585.86 88.69"/><polygon class="av" points="577.23 104.95 580.31 104.56 580.77 110.17 577.31 110.64 577.23 104.95"/><polygon class="av" points="578.08 120.5 581.33 119.97 581.69 125.82 578.08 126.12 578.08 120.5"/><polygon class="av" points="587.34 103.73 590.38 103.28 590.83 109.06 587.49 109.5 587.34 103.73"/><polygon class="av" points="588.26 118.98 591.52 118.56 591.94 124.28 588.62 124.78 588.26 118.98"/><polygon class="v" points="475.77 161.69 478.04 149.99 484.53 143.48 480.28 138.43 482.82 125.3 485.59 120 485 114.05 487.65 100.4 492.27 94.37 489.77 89.45 492.27 76.55 495.47 71.25 494.57 64.67 497.36 50.3 499.91 44.84 501.51 50.1 502.02 64.25 500.12 70.93 502.45 76.02 502.92 89 499.43 94.7 503.3 99.62 503.76 112.46 500.76 117.18 504.16 123.33 504.6 135.58 502.45 141.25 504.99 146.52 505.67 165.23 475.77 161.69"/><polygon class="av" points="478.04 149.99 504.99 146.52 504.6 135.58 480.28 138.43 478.04 149.99"/><polygon class="av" points="504.16 123.33 482.82 125.3 485 114.05 503.76 112.46 504.16 123.33"/><polygon class="av" points="487.65 100.4 503.3 99.62 502.92 89 489.77 89.45 487.65 100.4"/><polygon class="av" points="502.45 76.02 492.27 76.55 494.57 64.67 502.02 64.25 502.45 76.02"/><polygon class="e" points="497.36 50.3 501.51 50.1 500.86 32.22 497.36 50.3"/><polygon class="v" points="491.1 152.07 490.36 111.84 488.47 111.84 488.98 152.07 491.1 152.07"/><polygon class="g" points="627.03 148.05 599.56 143.9 475.77 161.69 473.71 172.29 548.49 172.59 627.03 148.05"/><polygon class="a" points="611.62 150.48 599.56 143.9 591.45 20.76 609.76 20.76 621.64 106.49 611.62 150.48"/><polygon class="v" points="631.3 4.21 500.86 32.22 605.31 25.85 611.62 150.48 473.71 172.29 470.39 189.44 520.52 211.54 637.9 196.65 631.97 129.07 631.3 4.21"/><polygon class="aw" points="770.49 116.49 716.05 108.62 689.88 112.4 712.46 123.54 758.61 127.25 770.49 116.49"/><polygon class="ax" points="754.84 119.15 770.49 116.49 756.85 186.65 740.18 193.54 754.84 119.15"/><polygon class="ay" points="697.18 112.4 754.84 119.15 747.79 193.02 690.93 188.56 697.18 112.4"/><polygon class="aw" points="732.94 188.56 737.82 142.1 705.37 137.06 695.83 184.32 732.94 188.56"/><polygon class="y" points="707.23 158.03 703.34 165.16 699.68 172.32 705.1 175.35 720.22 159.95 711.84 156.48 707.23 158.03"/><polygon class="u" points="709.29 129.07 720.22 159.95 707.23 158.03 704.99 154.8 703.47 144.22 709.29 129.07"/><polygon class="u" points="672.85 128.06 661.39 150.32 668.55 151.2 672.27 148.79 672.85 128.06"/><polygon class="al" points="703.34 165.16 708.9 180.89 682.14 188.56 675.13 185.38 672.95 174.24 684.47 168.41 703.34 165.16"/><polygon class="u" points="704.99 154.8 703.34 165.16 672.95 174.24 668.55 151.2 685.64 150.48 704.99 154.8"/><polygon class="az" points="680.3 125.97 672.85 128.06 668.55 151.2 704.99 154.8 709.29 129.07 700.22 123.75 680.3 125.97"/><polygon class="ba" points="686.42 132.42 677.26 134.36 680.3 125.97 693.17 123.54 700.22 123.75 694.76 136.91 686.42 132.42"/><polygon class="ac" points="716.05 108.62 712.27 124.36 703.47 111.41 716.05 108.62"/><polygon class="ad" points="707.21 102.17 716.05 108.62 703.07 114.96 700.62 108.87 707.21 102.17"/><polygon class="ae" points="651 72.51 654.66 118.92 672.95 118.24 686.37 129.75 696.73 120.28 706.55 92.71 687.45 71.04 665.5 65.48 651 72.51"/><polygon class="af" points="687.45 71.04 687.45 84.17 687.46 118.59 680.3 125.97 686.42 132.42 700.22 123.75 705.19 108.43 705.58 104.21 707.21 102.17 710.85 90.95 693.91 72.68 687.45 71.04"/><polygon class="af" points="657.45 87.88 668.96 99.49 676.63 86.05 672.32 85.18 668.5 85.75 668.26 88.82 667.24 90.35 665.59 89.07 664.81 86.27 661.13 86.05 657.45 87.88"/><polygon class="ag" points="707.21 102.17 701.61 101.02 705.19 108.43 707.21 102.17"/><polygon class="ag" points="702.69 97.56 703.49 92.1 707.51 92.77 702.69 97.56"/><polygon class="ah" points="668.96 99.49 666.92 100.21 664.73 99.76 665.59 89.07 668.26 88.82 668.96 99.49"/><polygon class="ag" points="664.73 99.76 667.18 102.14 668.96 99.49 664.73 99.76"/><circle class="ai" cx="660.61" cy="90.42" r="1.44"/><circle class="ai" cx="673.76" cy="90.18" r="1.44"/><polygon class="aj" points="651 72.51 665.74 56.57 689.06 54.9 707.42 67.46 707.99 86.35 699.26 84.24 695.97 87.72 687.45 84.17 651 72.51"/><polygon class="ac" points="695.36 77.55 707.42 67.46 710.85 90.95 700.32 85.78 695.46 88.33 695.36 77.55"/><polygon class="ak" points="699.68 73.93 710.85 90.95 701.92 88.99 698.67 97.28 687.45 84.17 691.13 75.92 699.68 73.93"/><polygon class="al" points="687.45 84.17 665.74 56.57 699.68 73.93 687.45 84.17"/><polygon class="aj" points="668.5 85.75 669.73 83.54 676.14 84.52 676.63 86.05 668.5 85.75"/><polygon class="ag" points="672.95 118.24 694.33 116.65 680.3 125.97 672.95 118.24"/><polygon class="aj" points="664.81 86.27 663.88 83.72 657.55 86.53 657.45 87.88 664.81 86.27"/><polygon class="u" points="674.69 107.82 667.91 111.03 661.13 108.04 667.51 107.21 674.69 107.82"/><polygon class="am" points="674.69 107.82 667.25 104.94 661.13 108.04 674.69 107.82"/><polygon class="al" points="582.22 215.4 584.02 239.31 611.36 250.51 630.9 244.36 634.4 224.84 582.22 215.4"/><polygon class="f" points="571.72 191.32 568.24 232.79 584.02 239.31 587.79 225.95 659.51 240.87 661.13 248.6 683.55 243.91 753.52 204.05 571.72 191.32"/><polygon class="al" points="684.19 218.6 683.73 233.32 683.55 243.91 748.73 229.94 753.52 204.05 718.22 206.74 684.19 218.6"/><polygon class="p" points="566.48 180.89 565.57 195.14 684.19 218.6 690.93 203.63 566.48 180.89"/><polygon class="o" points="756.85 186.65 753.52 204.05 684.19 218.6 683.64 206.74 703.1 194.5 756.85 186.65"/><polygon class="q" points="708.9 180.89 756.85 186.65 683.64 206.74 566.48 180.89 625.92 170.65 680.9 182.53 708.9 180.89"/><polygon class="bb" points="708.9 180.89 654.45 174.24 682.98 190.68 708.9 180.89"/><polygon class="bc" points="697.02 181.21 653.9 176.21 680.69 184.32 697.02 181.21"/><polygon class="bd" points="630.69 177.17 631.24 183.13 684.68 192.65 687.01 188.56 684.79 185.91 630.69 177.17"/><polygon class="bc" points="619.13 132.42 625.18 179.02 678.77 188.56 675.2 140.66 619.13 132.42"/><polygon class="be" points="682.35 138.18 684.79 185.91 678.77 188.56 673.76 142.1 675.2 139.27 682.35 138.18"/><polygon class="bb" points="631.97 129.07 619.13 132.42 673.76 142.1 682.35 138.18 631.97 129.07"/><polygon class="at" points="643.81 160.73 647.03 155.93 651.55 160.6 648.09 165.23 643.81 160.73"/><polygon class="be" points="684.79 185.91 684.68 192.65 708.9 186.76 708.9 180.89 684.79 185.91"/><polygon class="bf" points="572.78 202.78 568.24 232.79 552.67 225.86 547.8 210.56 552.06 191.32 572.78 202.78"/><polygon class="bg" points="555.22 214.8 552.67 225.86 520.52 211.54 521.82 197.94 552.06 191.32 555.22 214.8"/><polygon class="bh" points="546.94 210.99 555.22 214.8 561.53 209.88 558.28 195.56 550.93 195 546.94 210.99"/><polygon class="bg" points="560.11 124.86 578.4 146.52 571.02 153.64 561.75 146.13 560.11 124.86"/><polygon class="ae" points="568.64 66.49 570.34 114.57 551.25 116.16 543.71 122.59 537.46 124.81 526.53 120.89 518.04 86.95 530.77 66.48 554.85 65.73 568.64 66.49"/><polygon class="af" points="547.8 118.93 536.74 118.18 531.13 69.57 515.13 73.9 509.88 93.63 515.13 104.29 518.26 106.15 518.85 111.84 525.79 125.92 539.44 129.66 546.66 123.84 547.8 118.93"/><polygon class="af" points="565.51 84.72 551.99 97.06 541.06 84.72 547.18 84.47 551.99 86.88 556.09 86.73 559.41 83.98 565.51 84.72"/><polygon class="ah" points="551.99 86.88 551.99 97.06 554.45 97.82 556.92 96.86 556.09 86.73 551.99 86.88"/><polygon class="ag" points="551.99 97.06 554.45 99.62 556.92 96.86 551.99 97.06"/><polygon class="ag" points="515.13 104.29 521.86 102.22 518.85 111.84 515.13 104.29"/><polygon class="ag" points="513.06 94.9 517.83 93.74 518.68 98.83 513.06 94.9"/><polygon class="ag" points="551.25 116.16 531.67 117.6 546.66 123.84 551.25 116.16"/><polygon class="bi" points="542.76 90.5 545.78 91.4 548.22 90.39 548.49 91.88 545.78 92.67 542.55 91.83 542.76 90.5"/><polygon class="bi" points="557.66 90.39 560.58 90.87 563.5 90.18 563.82 91.45 560.58 92.3 557.4 91.56 557.66 90.39"/><polygon class="ad" points="541.06 84.72 551.99 86.88 551.25 84.35 542.55 83.13 541.06 84.72"/><polygon class="ad" points="556.09 86.73 556.71 84.3 564.19 82.97 565.51 84.72 556.09 86.73"/><polygon class="ag" points="549.5 102.96 558.3 102.59 559.04 109.01 549.23 109.59 549.5 102.96"/><polygon class="as" points="550.66 104.29 557.4 103.97 557.61 105.4 550.61 105.83 550.66 104.29"/><polygon class="ad" points="568.64 66.49 557.4 77.19 549.87 71.68 544.83 73.55 531.13 69.57 525.26 89.81 520.13 83.59 512.64 86.1 510.3 75.17 521.64 58.21 535.7 55.35 542.97 57.14 550.08 52.69 568.64 66.49"/><polygon class="bj" points="531.13 69.57 521.64 58.21 508.29 74.22 509.13 84.51 518.04 85.58 524.83 83.98 531.13 69.57"/><polygon class="ak" points="531.13 69.57 509.13 84.51 509.88 93.63 519.42 89.17 525.68 101.58 531.13 69.57"/><polygon class="ao" points="557.4 77.19 550.08 52.69 535.7 55.35 544.83 73.55 557.4 77.19"/><polygon class="bk" points="528.3 129.07 540.18 129.07 546.52 125.97 551.25 127.38 560.61 134.63 553.29 163.97 525.79 142.1 525.79 131.5 528.3 129.07"/><polygon class="ad" points="537.21 136.87 545.09 140.72 544.51 156.99 553.29 163.97 556.67 150.42 545.09 140.72 547.8 134.63 546.05 130.35 540.18 129.07 537.21 132.42 537.21 136.87"/><polygon class="bb" points="525.79 125.92 540.18 129.07 546.66 123.84 551.25 127.38 547.8 134.63 540.18 129.07 537.21 136.87 525.79 131.5 525.79 125.92"/><polygon class="bl" points="525.79 125.92 527.8 141.15 553.29 163.97 558.14 135.59 546.66 123.84 560.11 124.86 571.02 153.64 572.78 202.78 561.53 209.88 553.47 200.97 546.94 210.99 521.82 197.94 522.07 175.34 513.75 130.35 525.79 125.92"/><polygon class="bm" points="525.79 125.92 530.21 139.63 553.29 163.97 556.16 136.45 546.66 123.84 562.48 133.4 558.46 138.18 560.8 141.14 562.7 144.92 561.01 148.05 553.29 163.97 525.79 148.89 527.8 141.15 521.37 140.41 525.79 125.92"/><polygon class="bg" points="553.29 163.97 552.67 178.65 553.47 200.97 555.22 177.75 553.29 163.97"/><polygon class="bf" points="513.75 130.35 529.71 158.09 530.14 166.71 522.07 175.34 509.13 156.89 513.75 130.35"/><polygon class="ba" points="562.7 142.88 596.61 138.99 599.56 143.9 601.27 188.56 562.38 193.02 561.01 148.05 562.7 142.88"/><polygon class="p" points="560.8 141.14 599.29 136.91 599.56 143.9 561.01 148.05 560.8 141.14"/><polygon class="p" points="570.44 165.51 574.12 165.09 574.33 169.05 570.66 169.47 570.44 165.51"/><polygon class="p" points="571.08 178.59 574.97 178.03 575.32 182.27 571.29 182.76 571.08 178.59"/><polygon class="q" points="581.33 154.06 591.45 152.99 591.66 155.19 581.55 156.18 581.33 154.06"/><polygon class="q" points="581.62 165.51 591.73 164.38 591.8 166.71 581.76 167.42 581.62 165.51"/><polygon class="q" points="582.47 178.24 591.45 177.25 591.45 179.51 582.47 180.22 582.47 178.24"/><polygon class="af" points="553.86 158.5 561.2 154.2 562.52 160.91 561.65 169.12 553.01 170.65 550.93 165.58 553.86 158.5"/><polygon class="bg" points="529.71 158.09 553.86 158.5 553.01 170.65 522.07 175.34 529.71 158.09"/><polygon class="af" points="561.2 154.2 575.5 155.36 575.82 157.38 568.95 159.05 565.63 158.09 561.2 154.2"/><polygon class="ae" points="561.2 154.2 568.95 159.05 566.98 168.62 561.65 169.12 561.2 154.2"/><polygon class="ae" points="578.79 133.05 576.31 139.43 582.68 139.77 592.16 137.69 578.79 133.05"/><polygon class="af" points="576.31 139.43 578.13 146.21 588.69 145.07 592.16 137.69 576.31 139.43"/><polygon class="c" points="437.71 126.71 451.01 123.88 455.82 139.44 438.85 142.55 437.71 126.71"/><polygon class="f" points="173.88 336.8 171.41 344.18 210.58 350.76 215.25 342.62 211.01 338.1 173.88 336.8"/><polygon class="al" points="210.58 350.76 239.58 344.6 237.03 335.41 214.69 338.56 211.86 341.21 210.58 350.76"/><polygon class="e" points="206.99 328.3 173.88 336.8 211.86 341.21 237.03 335.41 206.99 328.3"/><polygon class="al" points="206.62 336.26 211.72 335.13 218.65 294.16 205.07 298.83 206.62 336.26"/><polygon class="f" points="208.04 303.64 206.62 336.26 200.26 335.62 194.53 293.74 208.04 303.64"/><polygon class="bk" points="120.92 274.08 119.5 288.65 208.04 303.64 214.26 287.37 182.3 278.48 120.92 274.08"/><polygon class="bc" points="208.04 303.64 274.79 290.74 271.87 274.08 227.27 282.4 208.6 290.14 208.04 303.64"/><polygon class="bb" points="271.87 274.08 208.6 290.14 120.92 274.08 209.74 257.11 215.25 267.94 249.41 267.94 271.87 274.08"/><polygon class="s" points="249.41 267.94 228.69 262.2 225.08 267.94 233.78 270.69 242.99 271.25 249.41 267.94"/><polygon class="bg" points="188.8 270.83 184 268.14 210.58 262.2 209.06 269.65 188.8 270.83"/><polygon class="r" points="188.8 270.83 215.96 263.47 245.09 270.83 210.02 277.9 188.8 270.83"/><polygon class="p" points="195.31 254.16 217.51 250.88 220.59 259.97 212.28 261.7 195.31 254.16"/><polygon class="q" points="217.51 250.88 216.16 258.86 228.69 262.2 237.6 254.7 217.51 250.88"/><polygon class="q" points="195.31 254.16 199.7 267.88 217.51 271.25 220.77 264.46 216.16 258.86 195.31 254.16"/><polygon class="p" points="216.16 258.86 237.6 254.7 232.95 267.76 217.51 271.25 216.16 258.86"/><polygon class="s" points="184 268.14 210.58 275.63 212.56 277.47 211.29 280.44 190.08 275.49 184 268.14"/><polygon class="bg" points="210.58 275.63 249.41 267.94 244.1 274.93 211.29 280.44 210.58 275.63"/><polygon class="ao" points="682.64 347.25 658.69 345.07 660.39 330.86 682.64 325.98 682.64 347.25"/><polygon class="aj" points="523.8 350.43 540.11 345.07 548.17 329.38 525.05 330.86 523.8 350.43"/><polygon class="aj" points="665.67 339.77 676.43 334.68 682.64 347.25 694.33 342.11 689.67 272.68 648.51 287.87 648.51 362.26 662.46 356.12 665.67 339.77"/><polygon class="ao" points="640.66 282.96 505.03 274.08 503.9 348.54 523.8 350.43 531.25 336.8 622.51 343.68 628.02 360.31 648.51 362.26 654.1 291.36 640.66 282.96"/><polygon class="bc" points="494.21 261.7 492.56 278.63 654.1 291.36 664.56 278.48 654.38 265.45 494.21 261.7"/><polygon class="bd" points="695.11 254 696.55 274.31 654.1 291.36 654.66 276.34 664.56 263.05 695.11 254"/><polygon class="bk" points="494.21 261.7 559.63 244.1 695.11 254 654.66 276.34 494.21 261.7"/><polygon class="k" points="523.8 290.56 573.41 294.8 571.29 328.1 521.58 325.18 523.8 290.56"/><polygon class="bn" points="556.97 310.07 560.79 306.36 565.25 310.71 560.47 314.85 556.97 310.07"/><polygon class="k" points="582.64 295.65 627.93 298.62 626.83 315.24 624.96 316.64 626.65 317.92 625.71 332.13 581.26 329.06 581.87 314.39 583.38 313.54 581.94 312.61 582.64 295.65"/><polygon class="bo" points="581.94 312.61 626.83 315.24 626.65 317.92 581.87 314.39 581.94 312.61"/><polygon class="bn" points="600.21 303.99 603.68 301.59 606.65 304.34 603.33 307.1 600.21 303.99"/><polygon class="bn" points="599.72 321.1 603.11 318.49 606.08 321.6 602.48 324.29 599.72 321.1"/><polygon class="c" points="585.08 190.43 616.12 184.58 631.33 186.44 598.02 193.18 585.08 190.43"/><polygon class="bp" points="585.08 190.43 584.68 215.35 587.31 220.02 584.54 223.84 584.02 256.4 600.57 257.25 606.65 215.53 601.84 190.85 585.08 190.43"/><polygon class="k" points="584.68 215.35 603.87 216.21 601.19 224.69 584.54 223.84 584.68 215.35"/><polygon class="i" points="601.84 190.85 631.33 186.44 631.33 194.88 631.33 249.34 600.57 257.25 601.84 190.85"/><polygon class="q" points="601.65 200.68 599.79 261.21 617.06 262.06 621.33 199.45 601.65 200.68"/><polygon class="p" points="618.98 201.81 626.99 198.34 649.57 195.73 649.02 250.63 617.06 262.06 618.98 201.81"/><polygon class="c" points="601.65 200.68 631.33 194.88 649.57 195.73 618.98 201.81 601.65 200.68"/><polygon class="z" points="631.33 194.88 630.85 216.09 632.03 217.93 630.76 220.02 630.7 222.99 633.1 225.29 630.61 226.77 629.93 257.46 650 258.66 654.31 193.75 631.33 194.88"/><polygon class="ab" points="630.85 216.09 652.26 217.05 651.91 221.29 630.76 220.02 630.85 216.09"/><polygon class="ab" points="630.7 222.99 651.35 223.88 651.98 228.61 630.61 226.77 630.7 222.99"/><polygon class="x" points="669.86 193.36 668.82 252.07 650 258.66 650.73 195.75 658.06 193.09 669.86 193.36"/><polygon class="c" points="631.33 194.88 653.04 191.64 669.86 193.36 650.73 195.75 631.33 194.88"/><polygon class="ad" points="449.78 345.5 443.65 360.89 431.7 360.89 424.07 346.98 449.78 345.5"/><polygon class="ad" points="397.79 366.29 393.73 374.19 379.26 374.19 373.27 357.8 397.79 366.29"/><polygon class="ad" points="311.21 346.14 304.89 358.27 290.54 358.27 283.71 346.14 311.21 346.14"/><polygon class="bq" points="444.64 190.64 467.98 170.8 413.95 160.65 375.98 164.62 393.73 181.23 444.64 190.64"/><polygon class="h" points="404.57 176.24 443.65 182.56 437.01 270.83 405.65 302.65 333.59 287.09 325.4 259.94 344.82 170.8 404.57 176.24"/><polygon class="br" points="336.45 261.7 286.57 275.23 295.25 352.54 311.21 346.14 328.82 314.24 336.45 261.7"/><polygon class="bq" points="378.88 319.9 348.48 314.24 325.4 305.45 349.18 283.56 399.39 299.56 378.88 319.9"/><polygon class="h" points="348.48 314.24 381.18 318.35 375.58 354.02 311.21 346.14 315.1 297.77 338.53 302.65 348.48 314.24"/><polygon class="bo" points="271.87 274.08 289.43 274.08 298.69 276.34 295.25 352.54 268.73 347.88 271.87 274.08"/><polygon class="l" points="298.69 276.34 271.87 274.08 325.4 259.94 336.45 261.7 342.61 263.4 298.69 276.34"/><polygon class="br" points="467.98 170.8 459.57 279.74 449.03 338.38 419.31 358.87 397.79 366.29 388.21 290.14 427.53 268.14 443.65 182.56 467.98 170.8"/><polygon class="ae" points="336.88 207.23 315.1 230.66 317.79 246.08 339.71 239.22 336.88 207.23"/><polygon class="ah" points="327.14 343.07 317.53 356.41 329.17 361.13 340.13 360.89 338.53 348.54 331.64 343.07 327.14 343.07"/><polygon class="ae" points="325.4 305.45 327.14 343.07 338.53 348.54 348.48 314.24 340.56 303.64 325.4 305.45"/><polygon class="ae" points="307.88 281.29 299.96 324.29 301.87 331.92 309.09 330.44 325.4 305.45 323.3 291.4 307.88 281.29"/><polygon class="ae" points="355.81 202.56 336.88 207.23 353.71 232.64 402.78 220.31 386.52 206.19 355.81 202.56"/><polygon class="ac" points="415.58 189.01 405 211.17 395.71 188.8 415.58 189.01"/><polygon class="ad" points="404.57 176.24 415.58 189.01 393.87 193.99 392.32 183.99 404.57 176.24"/><polygon class="ae" points="330.51 112 319.76 183 347.49 188.37 363.61 210.37 382.49 199.76 406.88 161.79 385.77 122.56 354.75 106.52 330.51 112"/><polygon class="af" points="385.77 122.56 381.18 142.27 369.15 193.99 355.81 202.56 362.76 214.4 386.52 206.19 399.34 184.92 401.4 178.73 404.57 176.24 413.95 160.65 394.91 127.28 385.77 122.56"/><polygon class="af" points="334.19 133.64 348.05 158.82 364.17 142.41 357.67 140.36 350.74 142.55 348.67 144.48 346.64 141.99 344.23 136.05 340.56 130.81 334.19 133.64"/><polygon class="ag" points="404.57 176.24 396.56 172.53 399.34 184.92 404.57 176.24"/><polygon class="ag" points="399.39 167.73 402.5 159.81 408.3 162.21 399.39 167.73"/><polygon class="ah" points="348.05 158.82 344.74 159.19 341.59 157.74 346.64 141.99 350.74 142.55 348.05 158.82"/><polygon class="ag" points="341.59 157.74 344.44 162.18 348.05 158.82 341.59 157.74"/><circle class="ai" cx="338.68" cy="142.27" r="2.23"/><circle class="ai" cx="358.52" cy="146.51" r="2.23"/><polygon class="aj" points="330.51 112 358.23 93.22 393.85 98.87 417.02 124.17 411.27 152.74 398.89 146.51 392.74 150.59 381.18 142.27 330.51 112"/><polygon class="ac" points="395.38 135.1 417.02 124.17 413.95 160.65 399.95 149.2 391.75 151.32 395.38 135.1"/><polygon class="ak" points="403.14 131.18 413.95 160.65 401.23 154.57 393.45 165.89 381.18 142.27 389.59 131.18 403.14 131.18"/><polygon class="al" points="381.18 142.27 358.23 93.22 403.14 131.18 381.18 142.27"/><polygon class="aj" points="334.19 133.64 334.47 131.18 340.91 128.83 346.71 134.35 344.23 136.05 339.56 132.44 334.19 133.64"/><polygon class="aj" points="350.74 142.55 351.79 139.04 363.04 139.72 364.17 142.41 350.74 142.55"/><polygon class="u" points="337.62 172.5 349.5 177.27 356.93 171.65 346.85 170.8 337.62 172.5"/><polygon class="am" points="337.62 172.5 348.33 167.19 356.93 171.65 337.62 172.5"/><polygon class="ag" points="347.49 188.37 380.15 193.47 355.81 202.56 347.49 188.37"/><polygon class="u" points="328.82 235.19 336.45 261.7 362.55 270.83 382.91 267.86 387.37 249.33 356.29 235.19 328.82 235.19"/><polygon class="bs" points="336.88 207.23 328.82 235.19 387.37 249.33 396.56 238.58 402.78 220.31 364.97 216.61 354.7 231.3 349.68 214.91 336.88 207.23"/><polygon class="ab" points="402.78 220.31 362.76 214.4 354.7 227.97 353 212.7 336.88 207.23 348.64 216.8 353.42 235.33 366.91 220.31 402.78 220.31"/><polygon class="bs" points="336.45 261.7 307.88 281.29 327.94 301.07 348.48 308.7 381.75 291.83 382.29 282.42 369.65 274.22 336.45 261.7"/><polygon class="ab" points="336.45 261.7 382.91 267.86 382.29 282.42 336.45 261.7"/><polygon class="u" points="308.99 282.4 381.75 291.83 380.98 305.33 369.18 308.37 329 301.14 308.99 282.4"/><polygon class="bt" points="369.18 308.37 307.88 281.29 325.4 305.45 348.48 314.24 369.18 308.37"/><polygon class="ah" points="309.09 330.44 306.89 340.41 292.61 338.85 277.28 333.78 288.78 327.62 299.96 324.29 309.09 330.44"/><polygon class="bs" points="289.79 336.35 288.78 327.62 272.95 332.35 281.37 335.42 289.79 336.35"/><polygon class="u" points="306.89 340.41 306.06 344.4 271.96 336.48 272.95 332.35 306.89 340.41"/><polygon class="bs" points="317.53 356.41 329.88 351.43 340.13 360.89 328.4 361.05 314.41 360.89 317.53 356.41"/><rect class="bu" x="314.41" y="360.89" width="25.72" height="3.64"/><polygon class="af" points="333.59 192.86 332.63 201.45 327.4 201.34 326.91 195.94 333.59 192.86"/><polygon class="af" points="322.99 211.57 327.4 201.34 322.08 191.59 312.68 186.39 313.68 207.32 317.08 211.14 322.99 211.57"/><polygon class="ah" points="317.79 246.08 322.08 217.6 319.76 211.82 311.67 212.46 303.78 232.64 317.79 246.08"/><polygon class="u" points="313.68 207.32 322.99 211.57 322.08 217.6 311.67 212.46 313.68 207.32"/><polygon class="af" points="312.68 186.39 320.41 178.73 325.64 184.14 320.65 186.39 312.68 186.39"/><polygon class="ah" points="312.68 186.39 325.64 184.14 333.59 192.86 327.4 201.34 312.68 186.39"/><polygon class="l" points="427.53 268.14 393.73 265.45 369.83 290.14 385.83 300.48 398.82 293.1 427.53 268.14"/><polygon class="bo" points="369.83 290.14 364.69 362 397.79 366.29 398.82 293.1 369.83 290.14"/><polygon class="ae" points="402.78 220.31 410.28 274.08 397.13 272.88 393.73 265.45 387.37 249.33 402.78 220.31"/><polygon class="ah" points="410.28 274.08 393.73 265.45 384.95 278.48 388.48 283.41 397.64 285.2 410.28 274.08"/><polygon class="ae" points="382.29 282.42 373.37 290.74 382.29 294.48 390.35 292.24 393.73 288.65 388.48 283.41 382.29 282.42"/><polygon class="af" points="373.37 290.74 377.4 308.37 387.9 304.13 390.35 292.24 373.37 290.74"/><polygon class="u" points="393.73 288.65 382.29 282.42 384.95 278.48 397.64 285.2 393.73 288.65"/><polygon class="bv" points="459.57 279.74 421.98 296.42 419.31 358.87 454.4 346.77 459.57 279.74"/></svg>